{"glyphs":{"0":{"ha":803,"x_min":0,"x_max":708,"o":"m 708 345 q 621 119 708 225 q 473 20 583 73 q 354 -56 369 -31 q 241 9 334 -26 q 107 77 138 50 q 0 308 0 165 q 100 573 0 476 q 368 670 199 670 q 606 575 505 670 q 708 345 708 480 m 536 426 q 485 550 536 502 q 357 598 434 598 q 232 549 283 598 q 180 426 180 499 q 232 306 180 354 q 357 258 283 258 q 481 307 426 258 q 536 426 536 355 z "},"1":{"ha":477,"x_min":0,"x_max":382,"o":"m 20 449 q 31 452 26 452 q 54 429 54 452 q 31 406 54 406 q 8 429 8 406 l 8 480 l 7 480 l 7 567 q 75 601 47 567 q 106 673 99 631 l 313 673 l 313 119 q 359 92 313 92 q 382 95 373 92 l 382 0 l 0 0 l 0 99 q 24 94 11 94 q 57 103 41 94 q 76 129 79 114 l 76 458 q 58 480 76 480 q 20 449 20 480 z "},"2":{"ha":806,"x_min":0,"x_max":711,"o":"m 274 450 q 273 460 273 454 q 294 483 273 483 q 317 460 317 483 q 294 437 317 437 l 18 437 q 66 570 12 510 q 376 671 159 671 q 564 627 476 671 q 674 481 674 572 q 382 302 674 302 q 69 156 69 302 q 84 107 69 121 q 317 254 140 254 q 460 222 377 254 q 579 198 526 198 q 650 252 650 198 q 632 294 650 266 q 711 182 711 275 q 659 55 711 107 q 538 3 608 3 q 378 51 473 3 q 229 99 282 99 q 146 75 182 99 q 109 3 107 47 q 29 60 58 18 q 0 157 0 102 q 37 279 0 220 q 245 399 91 372 q 378 426 361 419 q 454 521 454 453 q 427 582 454 559 q 361 605 399 605 q 236 492 236 605 q 239 460 236 476 q 274 450 243 445 z "},"3":{"ha":760,"x_min":0,"x_max":665,"o":"m 290 457 q 289 467 289 461 q 311 490 289 490 q 334 467 334 490 q 311 444 334 444 l 35 444 q 125 621 30 562 q 328 671 203 671 q 518 635 437 671 q 627 492 627 587 q 575 399 627 434 q 665 254 665 354 q 553 69 665 145 q 420 11 524 49 q 313 -47 332 -20 q 221 5 300 -22 q 102 53 122 41 q 0 216 0 115 q 24 309 0 263 q 94 372 53 361 q 87 319 87 358 q 164 217 87 258 q 296 182 229 182 q 411 203 361 182 q 479 289 479 233 q 446 350 479 327 q 378 369 418 369 q 311 340 330 369 l 311 406 q 332 404 320 404 q 452 505 452 404 q 345 591 452 591 q 274 566 301 591 q 247 505 247 541 q 254 469 247 486 q 290 457 262 452 z "},"4":{"ha":880,"x_min":0,"x_max":785,"o":"m 785 161 l 602 161 l 602 98 q 658 87 602 85 l 658 0 l 289 0 l 289 87 q 332 85 343 87 q 350 96 350 87 l 350 164 l 0 164 l 0 256 q 381 667 164 438 l 604 667 l 604 256 l 785 256 l 785 161 m 363 256 l 363 536 l 106 256 l 363 256 z "},"5":{"ha":709,"x_min":0,"x_max":614,"o":"m 543 538 q 526 567 547 564 l 161 567 l 161 442 q 350 511 233 511 q 534 448 458 511 q 614 274 614 380 q 507 68 614 151 q 376 3 477 45 q 281 -58 292 -33 q 198 -3 271 -33 q 87 50 107 35 q 0 231 0 117 q 15 278 0 254 q 50 308 31 308 q 126 220 62 252 q 243 193 180 193 q 374 224 317 193 q 442 332 442 263 q 401 416 442 387 q 304 446 359 446 q 220 423 266 446 q 164 362 167 396 l 69 362 l 69 667 l 560 667 l 560 518 q 533 495 560 495 q 510 518 510 495 q 533 540 510 540 q 543 538 538 540 z "},"6":{"ha":755,"x_min":0,"x_max":661,"o":"m 491 281 q 445 376 491 339 q 339 412 399 412 q 239 373 282 412 q 195 277 195 334 q 241 197 195 233 q 332 161 288 161 q 435 193 388 161 q 491 281 491 229 m 416 526 q 444 530 433 524 q 326 597 401 597 q 178 542 241 597 q 111 403 114 487 q 346 502 206 502 q 555 444 463 502 q 661 267 661 377 q 559 61 661 138 q 429 3 532 41 q 327 -57 342 -30 q 228 3 311 -27 q 109 57 133 38 q 0 309 0 141 q 96 568 0 471 q 354 665 193 665 q 617 513 562 665 l 396 513 q 373 536 373 513 q 396 559 373 559 q 418 536 418 559 q 416 526 418 530 z "},"7":{"ha":709,"x_min":0,"x_max":616,"o":"m 171 521 q 170 530 170 525 q 191 553 170 553 q 214 530 214 553 q 191 507 214 507 l 0 507 l 0 667 l 616 667 l 616 570 q 579 578 598 578 q 434 448 502 578 q 374 245 374 334 q 391 117 374 167 q 454 0 408 68 l 171 0 q 144 134 144 57 q 203 388 144 260 q 365 585 267 522 l 137 585 l 137 544 q 151 526 137 533 q 171 521 164 519 z "},"8":{"ha":712,"x_min":0,"x_max":616,"o":"m 616 233 q 492 34 616 98 q 392 -7 442 14 q 319 -58 334 -31 q 225 -5 300 -34 q 110 46 134 31 q 0 233 0 115 q 35 340 0 294 q 129 397 71 385 q 61 510 61 458 q 140 626 61 587 q 305 665 220 665 q 566 511 566 665 q 541 448 566 475 q 490 401 529 433 q 616 233 616 350 m 419 486 q 309 557 419 557 q 247 541 277 557 q 212 491 212 521 q 313 426 212 426 q 377 442 343 426 q 419 486 419 461 m 454 297 q 410 362 454 339 q 327 380 374 380 q 186 297 186 380 q 225 231 186 254 q 302 212 258 212 q 399 228 358 212 q 454 297 454 250 z "},"9":{"ha":722,"x_min":-3,"x_max":627,"o":"m 431 452 q 401 560 431 517 q 302 610 366 610 q 198 555 235 610 q 165 435 165 506 q 199 323 165 368 q 301 271 236 271 q 403 331 369 271 q 431 452 431 380 m 194 119 q 167 117 179 122 q 282 46 210 46 q 415 106 370 46 q 453 251 456 160 q 368 206 411 216 q 274 201 340 201 q 92 252 172 201 q 1 408 1 312 q 94 605 1 532 q 307 673 180 673 q 536 575 445 673 q 627 336 627 477 q 481 28 627 106 q 376 -8 469 22 q 279 -58 304 -31 q 187 -8 262 -30 q 80 28 95 19 q -3 133 23 64 l 157 133 l 157 133 l 157 133 l 214 133 q 237 110 237 133 q 214 87 237 87 q 193 110 193 87 q 194 119 193 115 z "},"\u0000":{"ha":0,"x_min":0,"x_max":0,"o":""},"\f":{"ha":0,"x_min":0,"x_max":0,"o":""}," ":{"ha":336,"x_min":0,"x_max":0,"o":""},"!":{"ha":275,"x_min":0,"x_max":179,"o":"m 179 628 q 145 423 179 616 q 103 182 109 222 l 85 182 q 37 431 85 184 q 0 631 0 617 q 25 690 0 667 q 88 712 50 712 q 151 688 123 712 q 179 628 179 663 m 176 58 q 151 -1 176 24 q 117 -16 151 -1 q 90 -56 94 -26 q 67 -18 85 -26 q 34 -3 49 -9 q 8 53 8 22 q 33 113 8 87 q 92 140 58 140 q 152 117 127 140 q 176 58 176 94 z "},"(":{"ha":602,"x_min":69,"x_max":532,"o":"m 532 -45 q 420 -83 483 -83 q 206 34 302 -83 q 145 191 178 69 q 69 320 115 296 q 146 469 109 346 q 227 637 187 600 q 441 731 323 731 q 500 720 476 731 q 308 582 377 726 q 252 331 252 468 q 308 90 252 203 q 490 -53 376 -53 q 532 -45 511 -53 z "},")":{"ha":600,"x_min":69,"x_max":532,"o":"m 69 -45 q 111 -53 90 -53 q 293 90 225 -53 q 349 331 349 203 q 293 582 349 468 q 100 720 224 726 q 160 731 125 731 q 374 637 278 731 q 454 469 414 600 q 532 320 492 346 q 456 191 486 296 q 395 34 423 69 q 180 -83 298 -83 q 69 -45 118 -83 z "},"+":{"ha":571,"x_min":47,"x_max":503,"o":"m 342 549 l 342 388 l 503 388 l 503 256 l 342 256 l 342 95 l 210 95 l 210 256 l 47 256 l 47 388 l 210 388 l 210 549 l 342 549 z "},",":{"ha":259,"x_min":0,"x_max":167,"o":"m 50 -71 q 77 -27 77 -56 q 54 4 77 -1 q 23 22 38 7 q 0 73 0 42 q 20 127 0 104 q 71 149 41 149 q 138 119 110 149 q 167 49 167 90 q 141 -30 167 11 q 68 -73 111 -73 q 50 -71 60 -73 z "},"-":{"ha":598,"x_min":47,"x_max":503,"o":"m 503 256 l 47 256 l 47 388 l 503 391 l 503 256 z "},".":{"ha":251,"x_min":0,"x_max":170,"o":"m 170 85 q 145 24 170 52 q 88 -3 121 -3 q 0 77 0 -3 q 25 140 0 114 q 87 167 50 167 q 146 144 123 167 q 170 85 170 122 z "},"/":{"ha":517,"x_min":4,"x_max":423,"o":"m 423 694 l 133 -34 l 4 -34 l 290 694 l 423 694 z "},":":{"ha":264,"x_min":0,"x_max":170,"o":"m 170 411 q 145 350 170 377 q 88 323 121 323 q 0 403 0 323 q 25 466 0 439 q 87 492 50 492 q 146 470 123 492 q 170 411 170 448 m 170 85 q 145 24 170 52 q 88 -3 121 -3 q 0 77 0 -3 q 25 140 0 114 q 87 167 50 167 q 146 144 123 167 q 170 85 170 122 z "},";":{"ha":264,"x_min":0,"x_max":170,"o":"m 50 -71 q 77 -27 77 -56 q 54 4 77 -1 q 23 22 38 7 q 0 73 0 42 q 20 127 0 104 q 71 149 41 149 q 138 119 110 149 q 167 49 167 90 q 141 -28 167 11 q 68 -73 111 -73 q 50 -71 60 -73 m 170 411 q 145 350 170 377 q 88 323 121 323 q 0 403 0 323 q 25 466 0 439 q 87 492 50 492 q 146 470 123 492 q 170 411 170 448 z "},"=":{"ha":598,"x_min":47,"x_max":503,"o":"m 503 351 l 47 351 l 47 456 l 503 456 l 503 351 m 503 161 l 47 161 l 47 266 l 503 266 l 503 161 z "},"?":{"ha":480,"x_min":0,"x_max":385,"o":"m 300 42 q 258 -33 300 -5 q 206 -76 210 -64 q 152 -33 199 -65 q 114 38 114 -7 q 142 104 114 75 q 206 134 170 134 q 273 109 245 134 q 300 42 300 83 m 195 528 q 195 498 195 515 q 168 458 195 475 q 118 441 141 441 q 38 461 69 441 q 0 530 0 484 q 202 674 0 674 q 326 643 274 674 q 385 536 385 605 q 335 438 385 479 q 237 380 286 410 q 189 316 189 350 q 228 281 189 281 q 264 309 264 281 q 241 340 264 328 q 254 343 248 343 q 290 321 277 343 q 302 274 302 298 q 281 213 302 235 q 233 184 269 201 q 195 155 203 170 q 155 185 186 170 q 113 213 125 201 q 92 279 92 237 q 155 384 92 342 q 270 446 212 415 q 332 545 332 487 q 298 608 332 583 q 222 632 263 632 q 156 616 183 632 q 123 557 123 594 q 155 515 123 515 q 171 528 171 515 l 195 528 z "},"\\":{"ha":513,"x_min":0,"x_max":419,"o":"m 133 694 l 419 -34 l 290 -34 l 0 694 l 133 694 z "},"_":{"ha":802,"x_min":47,"x_max":707,"o":"m 707 0 l 47 0 l 47 132 l 707 134 l 707 0 z "},"|":{"ha":331,"x_min":100,"x_max":235,"o":"m 235 647 l 235 0 l 100 0 l 100 647 l 235 647 z "},"।":{"ha":228,"x_min":0,"x_max":119,"o":"m 119 -27 l 0 -27 l 0 640 l 119 640 l 119 -27 z "},"॥":{"ha":499,"x_min":0,"x_max":391,"o":"m 119 -27 l 0 -27 l 0 640 l 119 640 l 119 -27 m 391 -27 l 271 -27 l 271 640 l 391 640 l 391 -27 z "},"ఁ":{"ha":518,"x_min":0,"x_max":410,"o":"m 27 309 l 0 328 q 39 370 24 343 q 68 452 52 393 q 115 564 84 510 q 225 651 157 627 q 311 667 271 667 q 384 651 350 667 q 407 636 397 646 q 225 522 289 633 q 180 328 183 450 q 241 140 186 232 q 410 16 292 45 q 317 0 354 0 q 308 0 313 0 q 130 117 180 0 q 27 309 68 269 z "},"ం":{"ha":844,"x_min":0,"x_max":735,"o":"m 735 334 q 684 163 735 240 q 547 42 633 85 q 444 3 495 22 q 366 -56 378 -23 q 282 5 354 -23 q 170 50 176 47 q 0 334 0 151 q 113 576 0 480 q 366 669 218 669 q 623 576 514 669 q 735 334 735 479 m 585 419 q 519 557 585 505 q 366 610 454 610 q 216 559 278 610 q 148 419 148 505 q 216 275 148 334 q 366 221 279 221 q 519 277 454 221 q 585 419 585 334 z "},"ః":{"ha":359,"x_min":0,"x_max":251,"o":"m 251 190 q 233 131 251 157 q 186 91 216 104 q 151 77 168 83 q 125 57 129 68 q 96 77 121 68 q 58 94 60 92 q 0 190 0 127 q 38 271 0 239 q 125 304 75 304 q 212 271 175 304 q 251 190 251 239 m 199 218 q 177 265 199 247 q 125 283 155 283 q 73 266 95 283 q 50 218 50 247 q 73 170 50 190 q 125 151 95 151 q 177 170 155 151 q 199 218 199 190 m 251 475 q 233 416 251 442 q 186 376 216 389 q 151 362 168 368 q 125 342 129 353 q 96 362 121 353 q 58 378 60 377 q 0 475 0 412 q 38 556 0 524 q 125 589 75 589 q 212 556 175 589 q 251 475 251 524 m 199 503 q 177 550 199 532 q 125 568 155 568 q 73 551 95 568 q 50 503 50 532 q 73 454 50 475 q 125 435 95 435 q 177 455 155 435 q 199 503 199 475 z "},"అ":{"ha":907,"x_min":0,"x_max":799,"o":"m 317 533 q 298 580 317 563 q 254 597 279 597 q 205 578 224 597 q 187 533 187 559 q 206 488 187 505 q 254 471 225 471 q 317 533 317 471 m 609 297 l 317 297 q 281 278 281 300 l 235 278 l 235 368 l 496 368 q 446 506 446 426 q 487 618 446 572 q 593 665 528 665 q 747 583 689 665 q 799 411 799 511 q 746 212 799 307 q 606 61 693 118 q 490 9 598 56 q 406 -57 416 -23 q 304 8 392 -23 q 168 60 184 52 q 0 370 0 160 q 71 576 0 490 q 263 667 146 667 q 372 635 326 667 q 423 541 423 600 q 376 429 423 471 q 247 387 328 387 q 144 429 190 387 q 98 528 99 471 q 77 457 77 506 q 178 274 77 339 q 387 220 262 220 q 600 267 496 220 q 727 423 727 326 q 593 557 727 557 q 532 530 556 557 q 509 467 509 503 q 589 385 509 395 q 609 388 602 381 l 609 297 z "},"ఆ":{"ha":890,"x_min":0,"x_max":781,"o":"m 548 311 l 431 309 q 403 304 410 309 q 396 279 396 300 l 353 279 l 353 396 l 505 396 q 535 404 513 396 q 564 419 557 412 q 472 456 509 423 q 435 545 435 490 q 484 639 435 604 q 597 670 529 670 q 734 625 682 670 q 779 533 779 585 q 765 464 779 488 q 724 407 761 454 q 781 286 781 374 q 589 37 781 122 q 483 0 536 19 q 406 -57 415 -24 q 324 0 391 -23 q 212 37 267 18 q 58 159 115 80 q 0 336 0 239 q 57 563 0 477 q 247 670 127 670 q 354 633 311 670 q 397 533 397 597 q 342 414 397 454 q 247 384 302 384 q 132 434 174 384 q 95 526 96 476 q 91 452 91 517 q 176 275 91 338 q 370 221 252 221 q 667 359 646 221 q 617 328 652 345 q 548 311 576 311 m 279 541 q 259 589 279 570 q 212 609 239 609 q 163 589 183 609 q 144 541 144 570 q 163 494 144 514 q 212 473 183 473 q 259 494 239 473 q 279 541 279 514 m 697 500 q 670 555 697 532 q 612 578 643 578 q 533 514 533 578 q 667 441 533 448 q 697 500 697 463 z "},"ఇ":{"ha":850,"x_min":0,"x_max":742,"o":"m 564 210 q 483 302 534 266 q 378 336 425 336 q 247 240 247 336 q 291 159 247 194 q 382 125 335 125 q 564 210 486 125 m 221 587 q 157 525 157 587 q 186 476 157 476 q 201 488 199 476 l 222 488 l 222 453 l 3 453 q 0 484 0 468 q 51 604 0 551 q 168 658 102 658 q 330 587 266 658 q 401 649 368 633 q 496 665 435 665 q 673 585 609 665 q 730 395 730 511 q 692 210 730 288 q 731 132 718 180 q 742 41 742 84 q 736 -20 742 8 l 559 -19 q 583 28 571 -7 q 594 83 594 64 q 590 99 594 94 q 534 61 563 77 q 393 8 519 53 q 290 -56 302 -24 q 212 8 279 -24 q 106 60 115 54 q 18 209 18 122 q 122 362 18 312 q 316 403 202 403 q 492 372 396 403 q 636 277 587 331 q 670 372 670 332 l 670 382 l 670 392 q 670 400 670 396 q 670 407 670 404 q 670 414 670 412 q 670 419 670 416 q 670 423 670 422 q 670 427 670 425 q 670 430 670 429 q 618 510 670 454 q 487 571 562 571 q 420 564 437 571 q 368 486 382 549 l 301 486 q 302 503 302 495 q 278 562 302 537 q 221 587 254 587 z "},"ఈ":{"ha":1367,"x_min":0,"x_max":1259,"o":"m 1179 297 q 1076 382 1175 382 q 994 301 994 377 q 1089 221 1006 224 q 1160 245 1141 221 q 1179 297 1179 269 m 1021 490 q 1025 490 1023 490 q 1085 507 1050 488 q 1134 574 1134 537 q 1106 640 1134 613 q 1038 666 1078 666 q 962 617 962 666 q 962 609 962 613 q 971 576 962 589 q 994 571 974 571 q 1006 582 1001 571 q 1017 595 1010 591 q 1032 598 1024 598 q 1065 566 1065 598 q 1044 536 1065 547 q 1004 526 1024 526 q 959 533 985 526 q 903 623 903 547 q 949 715 903 680 q 1050 747 990 747 q 1155 710 1112 747 q 1198 610 1198 673 q 1133 491 1198 538 q 1259 323 1259 435 q 1203 189 1259 243 q 1066 134 1147 134 q 905 285 911 144 q 921 346 905 313 q 962 382 940 372 l 0 382 l 0 488 l 1021 490 m 829 952 q 750 772 826 945 q 718 742 736 742 q 712 742 715 742 q 690 768 690 746 q 716 795 690 787 q 670 818 696 818 q 556 753 614 818 q 445 643 476 663 q 328 609 389 609 q 315 609 321 609 q 149 689 224 616 q 209 821 167 731 q 236 844 220 844 q 259 825 254 844 q 237 800 263 806 q 339 724 243 739 q 368 722 354 722 q 431 742 406 722 q 509 834 460 765 q 593 932 559 903 q 727 977 650 977 q 829 952 761 977 m 830 334 q 779 163 830 240 q 642 42 728 85 q 538 3 590 22 q 461 -56 473 -23 q 377 5 449 -23 q 264 50 271 47 q 95 334 95 151 q 208 576 95 480 q 461 669 313 669 q 718 576 609 669 q 830 334 830 479 m 680 419 q 614 557 680 505 q 461 610 549 610 q 311 559 373 610 q 243 419 243 505 q 311 275 243 334 q 461 221 374 221 q 614 277 549 221 q 680 419 680 334 z "},"ఉ":{"ha":989,"x_min":0,"x_max":880,"o":"m 597 812 q 566 757 597 800 l 522 694 q 463 750 492 723 q 425 812 425 789 q 452 869 425 846 q 515 891 480 891 q 572 865 544 891 q 597 818 600 841 q 597 812 597 815 m 670 510 q 670 525 670 524 q 670 536 670 526 q 694 549 694 534 q 690 563 694 556 q 488 610 662 610 q 348 566 410 610 q 264 456 286 522 l 853 456 l 853 381 l 255 381 q 254 361 254 370 q 275 282 254 319 q 376 227 308 227 q 492 313 492 227 q 492 339 492 330 l 530 339 q 534 312 530 336 q 601 231 545 258 q 675 213 637 213 q 758 258 722 213 q 793 353 793 302 q 849 313 822 353 q 880 213 880 270 q 857 114 880 151 q 783 42 838 83 q 720 3 751 23 q 670 -56 684 -22 q 605 3 654 -24 q 537 42 544 37 q 510 91 515 62 q 484 60 509 77 q 437 30 473 52 q 380 0 408 15 q 334 -56 346 -22 q 281 1 317 -22 q 222 33 251 16 q 113 283 113 103 q 122 381 113 334 l 0 381 l 0 456 l 151 456 q 278 612 189 555 q 468 669 362 667 q 492 669 480 669 q 838 511 777 669 l 670 510 z "},"ఊ":{"ha":1363,"x_min":0,"x_max":1255,"o":"m 705 823 q 677 757 705 798 q 629 688 635 699 q 579 749 620 699 q 541 819 541 793 q 568 870 541 848 q 625 892 595 892 q 705 823 705 892 m 1188 324 q 1162 372 1188 354 q 1105 391 1137 391 q 1049 371 1074 391 q 1024 321 1024 351 q 1105 254 1024 254 q 1162 274 1137 254 q 1188 324 1188 294 m 823 507 l 670 507 q 670 522 670 521 q 670 533 670 524 q 696 549 696 532 q 692 562 696 555 q 635 599 692 585 q 499 613 578 613 q 349 572 418 613 q 245 454 274 529 l 981 454 l 1066 475 q 1116 530 1116 494 q 1050 593 1116 593 q 981 533 981 593 q 1009 525 981 519 q 1006 533 1006 529 q 1029 548 1006 548 q 1053 525 1053 548 q 1044 501 1053 514 q 1025 488 1035 488 q 1016 488 1020 488 q 926 581 926 488 q 1076 693 926 693 q 1161 662 1126 693 q 1196 582 1196 631 q 1128 464 1196 506 q 1255 292 1255 434 q 1205 168 1255 217 q 1081 118 1156 118 q 954 153 1004 118 q 898 269 898 193 q 951 373 898 339 l 250 373 q 243 343 243 358 q 283 262 243 297 q 373 228 324 228 q 491 340 490 228 l 530 340 q 528 323 528 331 q 575 244 528 278 q 666 214 618 214 q 750 248 715 214 q 785 328 785 281 q 783 353 785 340 q 788 353 785 353 q 850 304 825 353 q 875 217 875 258 q 777 41 875 115 q 716 3 747 22 q 666 -56 680 -23 q 597 1 655 -28 q 515 61 533 34 q 498 94 506 76 q 458 43 481 64 q 387 3 454 39 q 327 -56 338 -23 q 270 5 319 -23 q 197 50 201 46 q 102 275 102 134 q 115 373 102 324 l 0 373 l 0 454 l 146 454 q 282 616 164 538 q 514 673 370 673 q 669 647 595 673 q 823 507 788 605 m 500 823 q 472 757 500 798 q 425 688 430 699 q 374 749 415 699 q 336 819 336 793 q 363 870 336 848 q 420 892 391 892 q 500 823 500 892 z "},"ఋ":{"ha":1714,"x_min":0,"x_max":1606,"o":"m 525 659 l 608 659 q 758 534 704 659 q 799 327 799 439 q 750 98 799 175 q 652 14 722 53 q 579 -56 591 -20 q 506 19 566 -15 q 419 83 437 60 q 327 15 400 57 q 255 -56 263 -20 q 170 9 239 -20 q 57 72 84 46 q 0 222 0 123 q 42 347 0 292 q 152 418 84 403 q 271 441 212 429 q 345 521 345 464 q 271 595 345 595 q 211 578 236 595 q 186 530 186 562 q 213 498 186 498 q 229 509 228 498 q 254 509 254 509 l 254 473 l 27 473 l 27 492 q 27 502 27 496 q 87 621 27 571 q 227 670 146 670 q 414 509 414 670 q 347 414 414 444 q 224 376 285 395 q 157 304 157 353 q 202 247 157 267 q 279 231 237 231 q 414 368 389 231 l 448 368 q 582 233 448 233 q 684 282 647 233 q 715 393 715 327 q 690 503 715 456 q 613 559 662 559 q 568 529 568 559 l 524 529 l 525 659 m 1347 563 q 1321 540 1321 563 l 1284 540 l 1284 673 q 1328 675 1306 675 q 1534 576 1455 675 q 1606 351 1606 484 q 1572 193 1606 274 q 1478 56 1537 107 q 1400 8 1473 52 q 1337 -57 1348 -23 q 1267 5 1325 -24 q 1183 54 1195 42 q 1149 137 1149 90 q 1070 47 1112 80 q 1000 5 1035 26 q 943 -57 956 -22 q 873 5 930 -23 q 798 49 806 41 q 751 184 751 94 q 793 399 751 266 q 833 316 810 358 q 960 252 879 252 q 967 252 963 252 q 1089 285 1044 252 q 1142 396 1142 323 q 1093 517 1142 469 q 971 564 1043 564 l 949 564 q 924 540 924 564 l 887 540 q 887 605 887 568 q 888 673 888 643 q 932 675 911 675 q 1137 578 1055 675 q 1211 362 1211 487 q 1362 252 1271 252 q 1485 285 1438 252 q 1538 396 1538 323 q 1489 516 1538 469 q 1367 563 1439 563 l 1347 563 z "},"ఌ":{"ha":1165,"x_min":0,"x_max":1067,"o":"m 3 575 q 68 731 0 669 q 243 793 136 793 q 343 768 297 793 q 422 677 389 742 q 487 768 433 742 q 597 793 541 793 q 742 732 678 793 q 802 575 806 671 q 753 430 799 490 q 632 324 708 370 q 528 241 575 288 q 481 146 481 194 q 532 43 481 85 q 654 0 583 0 q 840 72 769 0 q 962 319 911 144 q 978 532 990 420 q 863 628 958 618 l 890 616 q 901 576 909 602 q 831 582 873 533 l 831 723 q 1018 589 968 723 q 1044 232 1067 456 q 966 -7 1021 81 q 772 -146 895 -115 q 658 -214 686 -160 q 471 -118 629 -164 q 301 81 313 -72 q 407 290 301 225 q 575 391 556 378 q 670 473 613 414 q 704 576 704 507 q 673 652 704 621 q 597 682 642 682 q 494 631 536 682 q 452 532 452 579 l 388 532 q 345 631 388 579 q 243 682 302 682 q 167 652 198 682 q 136 576 136 621 q 167 532 136 555 q 217 563 217 515 l 270 563 l 270 471 l 23 467 q 3 575 8 506 z "},"ఎ":{"ha":848,"x_min":0,"x_max":739,"o":"m 326 293 q 296 361 326 332 q 228 391 267 391 q 159 362 187 391 q 130 293 130 334 q 159 224 130 252 q 228 197 187 197 q 297 224 269 197 q 326 293 326 252 m 320 703 q 426 711 359 711 q 646 586 547 711 q 739 342 739 468 q 617 35 739 133 q 555 0 586 18 q 506 -56 517 -23 q 467 0 500 -23 q 410 37 438 19 q 376 69 393 50 q 328 34 353 49 q 258 0 293 16 q 206 -56 214 -23 q 149 3 197 -24 q 77 43 79 43 q 0 216 0 107 q 62 379 0 320 q 229 438 125 438 q 369 380 308 438 q 448 247 423 327 q 488 235 465 235 q 581 286 544 235 q 613 391 613 332 q 560 552 613 472 q 411 644 498 644 q 365 617 365 644 l 319 616 q 319 652 319 648 q 320 703 320 667 z "},"ఏ":{"ha":848,"x_min":0,"x_max":739,"o":"m 625 700 q 427 806 571 806 q 240 742 334 806 q 119 575 119 662 q 160 484 119 528 q 149 483 155 483 q 85 534 118 483 q 58 647 58 578 q 107 762 66 707 q 148 848 148 818 q 144 872 148 860 q 203 857 168 857 q 302 873 233 857 q 406 888 370 888 q 552 849 484 888 q 633 730 633 803 q 625 700 633 712 m 326 293 q 296 361 326 332 q 228 391 267 391 q 159 362 187 391 q 130 293 130 334 q 159 224 130 252 q 228 197 187 197 q 297 224 269 197 q 326 293 326 252 m 320 703 q 426 711 359 711 q 646 586 547 711 q 739 342 739 468 q 617 35 739 133 q 555 0 586 18 q 506 -56 517 -23 q 467 0 500 -23 q 410 37 438 19 q 376 69 393 50 q 328 34 353 49 q 258 0 293 16 q 206 -56 214 -23 q 149 3 197 -24 q 77 43 79 43 q 0 216 0 107 q 62 379 0 320 q 229 438 125 438 q 369 380 308 438 q 448 247 423 327 q 488 235 465 235 q 581 286 544 235 q 613 391 613 332 q 560 552 613 472 q 411 644 498 644 q 365 617 365 644 l 319 616 q 319 652 319 648 q 320 703 320 667 z "},"ఐ":{"ha":868,"x_min":0,"x_max":760,"o":"m 324 296 q 233 391 324 391 q 165 362 195 391 q 136 296 136 334 q 161 227 136 254 q 231 199 187 199 q 296 229 269 199 q 324 296 324 258 m 258 598 q 184 533 184 598 q 212 500 184 500 q 228 511 227 500 q 250 511 250 511 l 250 476 l 31 477 q 28 502 28 490 q 75 619 28 571 q 191 667 122 667 q 284 652 254 667 q 340 594 315 636 q 487 665 408 665 q 692 553 617 665 q 758 320 760 456 q 648 47 757 142 q 579 4 647 46 q 524 -56 536 -24 q 471 4 514 -24 q 410 46 415 39 q 388 80 397 61 q 347 39 374 58 q 274 3 311 22 q 218 -56 228 -23 q 163 3 209 -23 q 90 41 126 22 q 0 212 0 104 q 62 377 0 316 q 231 438 125 438 q 444 267 391 438 q 511 210 461 210 q 613 277 571 210 q 648 397 648 334 q 605 540 648 483 q 473 601 556 601 q 391 524 391 601 q 392 503 391 514 l 313 503 q 316 525 316 514 q 258 598 316 598 z "},"ఒ":{"ha":857,"x_min":0,"x_max":749,"o":"m 243 606 q 176 534 176 606 q 203 502 176 502 q 220 513 218 502 q 241 513 241 513 l 241 479 l 39 479 q 103 621 39 568 q 236 666 159 666 q 353 631 308 666 q 400 521 400 591 q 385 458 400 480 q 290 399 362 425 q 199 361 218 373 q 167 305 167 340 q 294 217 167 217 q 361 246 332 217 q 389 313 389 275 q 382 343 389 330 l 434 343 q 458 257 427 297 q 536 217 488 217 q 623 239 595 217 q 650 316 650 262 q 589 378 650 355 q 625 387 606 387 q 715 334 677 387 q 749 232 749 285 q 670 45 749 113 q 598 4 669 45 q 540 -56 549 -24 q 496 3 532 -24 q 438 42 467 22 q 397 85 410 62 q 354 38 380 57 q 286 1 320 19 q 232 -56 241 -24 q 168 1 222 -24 q 88 39 129 20 q 0 231 0 99 q 133 412 0 372 q 273 457 260 452 q 320 521 320 479 q 243 606 320 606 z "},"ఓ":{"ha":857,"x_min":0,"x_max":749,"o":"m 243 606 q 179 534 179 606 q 205 502 179 502 q 222 513 221 502 q 244 513 244 513 l 243 479 l 41 479 q 104 621 41 568 q 236 667 159 667 q 209 749 209 707 q 245 831 209 798 q 343 864 281 864 q 452 822 408 864 q 495 716 495 780 q 475 654 495 692 q 435 609 454 616 q 452 659 452 632 q 426 720 452 694 q 357 745 400 745 q 298 722 320 745 q 281 662 275 699 q 400 521 400 639 q 385 458 400 480 q 290 399 362 425 q 199 361 218 373 q 167 305 167 340 q 294 217 167 217 q 361 246 332 217 q 389 313 389 275 q 382 343 389 330 l 434 343 q 458 257 427 297 q 536 217 488 217 q 623 239 595 217 q 650 316 650 262 q 589 378 650 355 q 625 387 606 387 q 715 334 677 387 q 749 232 749 285 q 670 45 749 113 q 598 4 669 45 q 540 -56 549 -24 q 496 3 532 -24 q 438 42 467 22 q 397 85 410 62 q 354 38 380 57 q 286 1 320 19 q 232 -56 241 -24 q 168 1 222 -24 q 88 39 129 20 q 0 231 0 99 q 133 412 0 372 q 273 457 260 452 q 320 521 320 479 q 243 606 320 606 z "},"ఔ":{"ha":1029,"x_min":0,"x_max":921,"o":"m 243 606 q 179 533 179 606 q 206 500 179 500 q 222 511 221 500 q 244 511 244 511 l 243 479 l 39 479 q 99 620 39 566 l 99 673 l 270 673 q 326 716 326 673 q 269 769 326 769 l 0 769 l 0 873 l 690 873 q 872 787 807 865 q 921 636 921 708 q 865 489 921 552 q 726 426 808 426 q 549 568 549 426 q 600 675 549 632 q 715 718 650 718 q 859 647 783 718 q 831 724 859 690 q 761 765 803 757 q 709 769 741 769 q 387 769 709 769 q 400 726 400 765 q 338 640 400 646 q 400 521 400 606 q 385 458 400 480 q 290 399 362 425 q 199 361 218 373 q 167 305 167 340 q 294 217 167 217 q 361 246 332 217 q 389 313 389 275 q 382 343 389 330 l 434 343 q 458 257 427 297 q 536 217 488 217 q 623 239 595 217 q 650 316 650 262 q 589 378 650 355 q 625 387 606 387 q 715 334 677 387 q 749 232 749 285 q 670 45 749 113 q 598 4 669 45 q 540 -56 549 -24 q 496 3 532 -24 q 438 42 467 22 q 397 85 410 62 q 354 38 380 57 q 286 1 320 19 q 232 -56 241 -24 q 168 1 222 -24 q 88 39 129 20 q 0 231 0 99 q 133 412 0 372 q 273 457 260 452 q 320 521 320 479 q 243 606 320 606 m 793 567 q 727 631 793 631 q 651 572 651 631 q 673 528 651 547 q 720 510 694 510 q 770 526 746 510 q 793 567 793 543 z "},"క":{"ha":732,"x_min":19,"x_max":680,"o":"m 222 281 q 187 248 187 277 q 339 197 187 197 q 509 274 509 197 q 446 358 509 336 q 323 372 410 370 q 140 397 217 373 q 23 509 23 434 q 121 647 23 609 q 334 674 191 674 q 534 629 449 674 q 635 475 635 574 l 404 475 l 404 506 q 442 534 442 506 q 397 586 442 570 q 320 600 363 600 q 142 511 142 600 q 294 434 142 434 q 532 401 435 434 q 669 244 669 353 q 601 104 669 156 q 461 31 575 84 q 336 -60 370 -11 q 225 19 312 -16 q 85 80 104 69 q 19 193 19 123 q 66 308 19 250 l 222 308 l 222 281 m 680 954 q 600 773 639 854 q 559 743 582 739 q 537 769 537 747 q 564 796 537 788 q 517 819 544 819 q 397 758 457 819 q 288 644 343 701 q 171 610 240 606 q 22 675 81 617 q 83 807 39 718 q 110 830 94 830 q 133 811 129 830 q 111 787 137 792 q 195 726 132 735 q 272 743 241 719 q 353 836 302 766 q 438 933 403 905 q 575 978 496 978 q 680 954 610 978 z "},"ఖ":{"ha":1008,"x_min":0,"x_max":899,"o":"m 549 -87 q 517 -140 549 -117 q 484 -164 491 -157 q 461 -202 467 -180 q 426 -164 453 -182 q 385 -141 406 -153 q 358 -90 358 -121 q 391 -22 358 -58 q 456 62 438 33 q 517 -19 473 27 q 549 -87 549 -53 m 285 532 q 265 578 285 559 q 220 597 245 597 q 175 577 194 597 q 156 532 156 557 q 176 490 156 507 q 220 472 195 472 q 285 532 285 472 m 407 220 q 355 276 393 254 q 281 298 317 298 q 184 227 184 298 q 212 175 184 194 q 273 156 239 156 q 407 220 351 156 m 581 662 q 635 669 608 669 q 831 559 757 669 q 899 335 899 463 q 859 159 899 241 q 735 28 814 68 q 677 0 707 15 q 631 -56 640 -22 q 590 0 620 -20 q 534 28 578 9 q 456 98 469 57 q 372 31 422 56 q 286 1 328 16 q 218 -56 229 -22 q 151 4 206 -24 q 66 47 71 43 q 0 180 0 98 q 231 340 0 340 q 350 321 289 340 q 453 259 423 297 q 484 357 484 297 q 437 500 484 431 q 320 587 391 570 q 345 521 345 555 q 289 423 345 467 q 176 380 233 380 q 3 510 3 380 q 79 631 3 586 q 224 670 144 670 q 552 332 552 670 q 548 259 552 297 q 662 209 602 209 q 776 264 728 209 q 823 387 823 319 q 771 506 823 449 q 669 563 719 563 q 625 534 625 563 l 579 534 q 581 597 579 562 q 581 662 581 632 z "},"గ":{"ha":872,"x_min":0,"x_max":764,"o":"m 762 952 q 684 772 760 945 q 646 742 669 738 q 624 768 624 746 q 650 795 624 787 q 604 818 629 818 q 490 753 548 818 q 378 643 410 663 q 248 609 317 605 q 83 689 157 616 q 142 821 100 731 q 170 844 153 844 q 193 825 187 844 q 171 800 197 806 q 273 724 176 739 q 365 742 331 715 q 443 834 393 765 q 526 932 492 903 q 661 977 583 977 q 762 952 694 977 m 23 134 q 0 293 0 195 q 96 533 0 412 q 353 669 205 669 q 647 570 536 669 q 764 269 764 463 q 690 0 764 184 l 498 0 q 553 163 524 64 q 595 342 587 277 q 598 377 598 358 q 560 529 598 465 q 427 609 514 609 q 250 522 317 609 q 186 338 186 445 q 214 179 186 262 q 278 54 241 104 q 315 15 296 30 q 340 11 323 8 q 339 19 339 15 q 357 38 339 38 q 376 19 376 38 q 357 0 376 0 l 99 0 q 23 134 39 90 z "},"ఘ":{"ha":1351,"x_min":0,"x_max":1242,"o":"m 530 670 l 613 670 q 762 545 709 670 q 802 338 802 450 q 734 114 802 213 q 635 24 711 79 q 548 -54 560 -30 q 482 7 537 -26 q 406 94 427 39 q 322 17 392 50 q 237 -54 252 -16 q 161 8 225 -24 q 54 80 84 47 q 0 248 0 141 q 69 415 0 350 q 240 480 138 480 q 441 355 385 480 q 465 293 449 334 q 583 241 490 241 q 684 294 647 241 q 716 407 716 342 q 692 514 716 469 q 604 570 661 570 q 562 553 562 570 q 564 549 562 548 q 549 549 555 549 q 530 551 544 551 l 530 670 m 335 324 q 304 395 335 365 q 232 425 273 425 q 165 395 193 425 q 137 324 137 365 q 163 253 137 282 q 232 224 190 224 q 335 324 335 224 m 651 954 q 572 773 648 947 q 533 743 556 739 q 511 769 511 747 q 538 796 511 788 q 492 819 518 819 q 374 758 434 819 q 267 644 321 701 q 153 610 221 606 q 7 675 65 617 q 66 807 24 718 q 94 830 77 830 q 115 811 111 830 q 95 787 119 792 q 176 726 114 735 q 252 743 222 719 q 331 836 282 766 q 415 933 380 905 q 549 978 472 978 q 651 954 583 978 m 494 -92 q 465 -157 494 -129 q 429 -182 448 -170 q 397 -225 404 -198 q 366 -182 389 -198 q 330 -159 347 -170 q 298 -94 298 -130 q 346 -20 298 -73 q 404 60 397 38 q 458 -20 414 39 q 494 -92 494 -68 m 911 673 q 1175 567 1104 673 q 1242 351 1242 467 q 1204 187 1242 270 q 1100 49 1165 99 q 1027 7 1063 27 q 968 -57 979 -22 q 895 5 954 -23 q 817 50 826 41 q 772 184 772 96 q 800 358 772 267 q 850 274 819 312 q 993 225 887 225 q 1114 280 1057 225 q 1172 396 1172 335 q 1119 518 1172 472 q 974 564 1066 564 q 948 540 948 564 l 910 540 l 911 673 z "},"ఙ":{"ha":857,"x_min":0,"x_max":749,"o":"m 243 606 q 176 534 176 606 q 203 502 176 502 q 220 513 218 502 q 241 513 241 513 l 241 479 l 39 479 q 103 621 39 568 q 236 666 159 666 q 353 631 308 666 q 400 521 400 591 q 385 458 400 480 q 290 399 362 425 q 199 361 218 373 q 167 305 167 340 q 294 217 167 217 q 361 246 332 217 q 389 313 389 275 q 382 343 389 330 l 434 343 q 458 257 427 297 q 536 217 488 217 q 623 239 595 217 q 650 316 650 262 q 589 378 650 355 q 625 387 606 387 q 715 334 677 387 q 749 232 749 285 q 670 45 749 113 q 598 4 669 45 q 540 -56 549 -24 q 496 3 532 -24 q 438 42 467 22 q 397 85 410 62 q 354 38 380 57 q 286 1 320 19 q 232 -56 241 -24 q 168 1 222 -24 q 88 39 129 20 q 0 231 0 99 q 133 412 0 372 q 273 457 260 452 q 320 521 320 479 q 243 606 320 606 m 381 492 q 387 564 389 524 l 507 563 q 475 606 475 578 q 499 652 475 636 q 541 690 533 678 q 585 651 551 675 q 608 605 608 632 q 579 564 608 578 l 651 564 l 651 492 l 381 492 z "},"చ":{"ha":977,"x_min":0,"x_max":868,"o":"m 0 538 l 366 538 l 366 427 q 324 433 345 433 q 247 411 282 433 q 208 345 208 385 q 248 270 208 302 q 332 237 289 237 q 414 268 378 237 q 449 345 449 298 q 448 363 449 354 l 496 363 q 519 283 492 315 q 595 251 547 251 q 692 302 652 251 q 731 408 726 347 q 658 572 741 519 q 431 610 586 618 q 388 635 391 608 q 434 670 388 666 q 533 670 425 670 q 779 566 682 670 q 868 334 868 465 q 766 39 868 113 q 694 7 731 23 q 624 -56 635 -23 q 570 1 614 -23 q 506 37 507 35 q 465 91 481 58 q 422 35 453 71 q 350 1 422 35 q 289 -56 298 -23 q 231 1 281 -23 q 155 38 193 20 q 66 136 99 76 q 34 255 34 195 q 157 425 34 377 l 73 425 q 52 425 52 425 q 47 406 47 423 q 26 406 38 406 q 0 406 14 406 l 0 538 m 867 952 q 788 772 865 945 q 750 742 773 738 q 728 768 728 746 q 755 795 728 787 q 708 818 735 818 q 618 762 658 818 q 549 659 585 711 q 419 610 499 606 q 273 675 332 617 q 332 807 290 718 q 359 830 343 830 q 381 811 377 830 q 361 787 385 792 q 401 742 372 760 q 463 724 431 724 q 559 789 519 724 q 628 911 593 850 q 765 977 680 977 q 867 952 800 977 z "},"ఛ":{"ha":977,"x_min":0,"x_max":868,"o":"m 0 538 l 366 538 l 366 427 q 324 433 345 433 q 247 411 282 433 q 208 345 208 385 q 248 270 208 302 q 332 237 289 237 q 414 268 378 237 q 449 345 449 298 q 448 363 449 354 l 496 363 q 519 283 492 315 q 595 251 547 251 q 692 302 652 251 q 731 408 726 347 q 658 572 741 519 q 431 610 586 618 q 388 635 391 608 q 434 670 388 666 q 533 670 425 670 q 779 566 682 670 q 868 334 868 465 q 766 39 868 113 q 694 7 731 23 q 624 -56 635 -23 q 570 1 614 -23 q 506 37 507 35 q 465 91 481 58 q 422 35 453 71 q 350 1 422 35 q 289 -56 298 -23 q 231 1 281 -23 q 155 38 193 20 q 66 136 99 76 q 34 255 34 195 q 157 425 34 377 l 73 425 q 52 425 52 425 q 47 406 47 423 q 26 406 38 406 q 0 406 14 406 l 0 538 m 553 -92 q 525 -157 553 -129 q 488 -182 507 -170 q 457 -225 464 -198 q 426 -182 449 -198 q 389 -159 407 -170 q 358 -94 358 -130 q 406 -20 358 -73 q 464 60 457 38 q 518 -20 473 39 q 553 -92 553 -68 m 867 952 q 788 772 865 945 q 750 742 773 738 q 728 768 728 746 q 755 795 728 787 q 708 818 735 818 q 618 762 658 818 q 549 659 585 711 q 419 610 499 606 q 273 675 332 617 q 332 807 290 718 q 359 830 343 830 q 381 811 377 830 q 361 787 385 792 q 401 742 372 760 q 463 724 431 724 q 559 789 519 724 q 628 911 593 850 q 765 977 680 977 q 867 952 800 977 z "},"జ":{"ha":860,"x_min":0,"x_max":751,"o":"m 18 479 q 56 604 15 551 q 202 673 107 673 q 381 532 335 673 q 496 434 414 434 q 601 494 606 434 q 574 545 598 524 q 521 566 551 566 q 444 524 468 566 l 445 665 q 537 682 491 682 q 659 638 609 682 q 709 522 709 594 q 644 411 709 453 q 514 373 589 374 q 363 442 438 372 q 244 357 336 385 q 167 281 167 334 q 263 209 167 209 q 366 290 366 209 q 365 311 366 300 l 401 311 q 533 209 410 209 q 662 298 662 209 q 625 362 662 330 q 646 363 636 363 q 730 302 703 363 q 747 193 751 255 q 665 38 742 95 q 601 1 633 20 q 549 -56 557 -24 q 503 0 540 -23 q 444 33 473 16 q 380 92 411 56 q 312 27 347 49 q 247 0 279 14 q 197 -56 203 -23 q 145 3 187 -23 q 80 38 113 20 q 0 210 0 98 q 29 313 0 264 q 107 380 58 361 q 251 420 156 392 q 324 519 324 445 q 252 587 324 587 q 183 511 172 587 q 205 498 191 498 q 222 509 222 498 q 244 509 244 509 l 243 481 q 182 480 227 481 q 18 479 138 479 z "},"ఝ":{"ha":1648,"x_min":0,"x_max":1539,"o":"m 735 334 q 684 163 735 240 q 547 42 633 85 q 444 3 495 22 q 366 -56 378 -23 q 282 5 354 -23 q 170 50 176 47 q 0 334 0 151 q 113 576 0 480 q 366 669 218 669 q 623 576 514 669 q 735 334 735 479 m 585 419 q 519 557 585 505 q 366 610 454 610 q 216 559 278 610 q 148 419 148 505 q 216 275 148 334 q 366 221 279 221 q 519 277 454 221 q 585 419 585 334 m 734 952 q 655 772 731 945 q 617 742 640 738 q 595 768 595 746 q 621 795 595 787 q 575 818 601 818 q 461 753 519 818 q 350 643 381 663 q 220 609 289 605 q 54 689 129 616 q 114 821 72 731 q 141 844 125 844 q 164 825 159 844 q 142 800 168 806 q 244 724 148 739 q 336 742 302 715 q 414 834 365 765 q 498 932 464 903 q 632 977 555 977 q 734 952 666 977 m 1280 563 q 1255 540 1255 563 l 1218 540 l 1218 673 q 1261 675 1240 675 q 1468 576 1389 675 q 1539 351 1539 484 q 1506 193 1539 274 q 1412 56 1470 107 q 1333 8 1407 52 q 1271 -57 1282 -23 q 1200 5 1259 -24 q 1116 54 1128 42 q 1082 137 1082 90 q 1004 47 1046 80 q 933 5 968 26 q 876 -57 890 -22 q 807 5 864 -23 q 731 49 739 41 q 685 184 685 94 q 727 399 685 266 q 773 315 743 358 q 901 252 821 252 q 1023 285 978 252 q 1076 396 1076 323 q 1026 517 1076 469 q 905 564 977 564 l 883 564 q 857 540 857 564 l 821 540 q 821 605 821 568 q 822 673 822 643 q 865 675 845 675 q 1070 578 989 675 q 1145 362 1145 487 q 1295 252 1204 252 q 1419 285 1371 252 q 1472 396 1472 323 q 1422 516 1472 469 q 1301 563 1373 563 l 1280 563 m 1162 -113 q 1134 -178 1162 -149 q 1097 -202 1116 -190 q 1066 -245 1073 -218 q 1035 -202 1058 -218 q 998 -179 1016 -190 q 967 -114 967 -151 q 1015 -41 967 -94 q 1073 39 1066 18 q 1127 -41 1082 19 q 1162 -113 1162 -88 z "},"ఞ":{"ha":1093,"x_min":0,"x_max":985,"o":"m 537 250 q 454 315 518 288 q 327 340 391 343 q 153 250 153 334 q 233 187 153 210 q 330 171 289 171 q 537 250 445 171 m 222 581 q 160 569 178 581 q 142 517 142 557 q 170 484 142 484 q 186 495 184 484 q 208 495 208 495 l 208 460 l 0 460 q 45 610 0 551 q 168 669 91 669 q 334 597 269 669 q 407 659 372 643 q 503 675 442 675 q 663 617 587 675 q 753 477 738 559 l 841 477 q 808 521 808 492 q 833 567 808 551 q 875 605 867 593 q 918 566 884 590 q 941 519 941 547 q 913 479 941 492 l 985 479 l 985 407 l 761 407 q 703 212 761 293 q 761 43 761 130 q 749 -24 761 7 l 567 -24 q 608 57 608 -14 q 600 98 608 87 q 547 62 574 77 q 422 8 540 58 q 335 -57 347 -24 q 232 8 320 -24 q 106 60 123 47 q 15 212 15 122 q 122 368 15 316 q 320 408 203 408 q 495 373 400 408 q 647 279 595 335 q 678 389 678 331 q 626 524 678 467 q 494 581 574 581 q 410 567 434 581 q 373 494 373 548 q 363 480 374 487 q 340 473 353 473 q 305 494 317 473 q 222 581 305 581 z "},"ట":{"ha":945,"x_min":0,"x_max":837,"o":"m 473 666 l 562 666 q 757 585 681 673 q 831 399 826 505 q 811 213 837 302 q 722 52 783 111 q 655 5 713 45 q 595 -57 612 -23 q 536 -3 574 -20 q 483 19 509 8 q 426 77 463 31 q 373 19 408 54 q 317 -5 345 7 q 266 -57 282 -22 q 187 7 247 -24 q 99 58 114 45 q 0 288 0 153 q 46 533 0 433 q 236 667 109 667 q 408 544 408 667 q 357 428 408 475 q 235 381 305 381 q 80 454 126 381 q 71 406 71 437 q 146 274 71 334 q 269 221 214 221 q 376 258 331 221 q 420 358 420 296 q 419 380 420 369 l 458 380 q 492 281 450 319 q 595 243 534 243 q 709 307 671 243 q 738 425 738 355 q 693 534 738 492 q 566 576 648 576 q 518 547 518 576 l 473 547 l 473 666 m 300 537 q 278 585 300 564 q 229 606 256 606 q 180 585 201 606 q 160 534 160 563 q 182 485 160 505 q 233 465 203 465 q 279 489 258 465 q 300 537 300 513 m 161 736 q 182 785 161 765 q 231 806 202 806 q 279 785 259 806 q 300 736 300 765 q 279 688 300 708 q 231 667 259 667 q 182 688 202 667 q 161 736 161 708 z "},"ఠ":{"ha":844,"x_min":0,"x_max":735,"o":"m 735 334 q 684 163 735 240 q 547 42 633 85 q 444 3 495 22 q 366 -56 378 -23 q 282 5 354 -23 q 170 50 176 47 q 0 334 0 151 q 113 576 0 480 q 366 669 218 669 q 623 576 514 669 q 735 334 735 479 m 585 419 q 519 557 585 505 q 366 610 454 610 q 216 559 278 610 q 148 419 148 505 q 216 275 148 334 q 366 221 279 221 q 519 277 454 221 q 585 419 585 334 m 734 952 q 655 772 731 945 q 617 742 640 738 q 595 768 595 746 q 621 795 595 787 q 575 818 601 818 q 461 753 519 818 q 350 643 381 663 q 220 609 289 605 q 54 689 129 616 q 114 821 72 731 q 141 844 125 844 q 164 825 159 844 q 142 800 168 806 q 244 724 148 739 q 336 742 302 715 q 414 834 365 765 q 498 932 464 903 q 632 977 555 977 q 734 952 666 977 m 418 463 q 365 406 418 406 q 307 457 307 406 q 362 517 307 517 q 418 463 418 517 z "},"డ":{"ha":982,"x_min":0,"x_max":873,"o":"m 755 372 q 738 409 755 393 q 697 425 720 425 q 636 372 636 425 q 697 321 636 321 q 755 372 755 321 m 629 514 l 583 514 q 583 536 583 528 q 582 553 582 544 q 601 553 605 553 q 604 568 605 553 q 438 608 604 608 q 243 542 320 608 q 167 374 167 476 q 209 260 167 309 q 316 212 251 212 q 426 309 426 212 q 423 335 426 321 q 445 347 427 347 q 465 335 463 346 q 464 312 464 323 q 513 221 464 252 q 618 195 555 195 q 730 222 673 195 q 798 305 798 255 q 795 323 798 315 q 639 245 742 245 q 545 270 586 245 q 496 347 496 298 q 559 452 496 415 q 648 477 604 477 q 873 256 873 477 q 772 53 873 130 q 686 7 770 52 q 618 -57 629 -23 q 556 4 610 -23 q 480 43 484 39 q 446 92 458 64 q 403 45 426 65 q 331 4 368 24 q 274 -57 285 -23 q 205 8 266 -23 q 113 56 119 52 q 0 311 0 148 q 129 579 0 475 q 418 675 250 675 q 799 514 708 675 l 629 514 m 837 952 q 751 772 834 945 q 709 742 735 738 q 685 768 685 746 q 713 795 685 787 q 663 818 692 818 q 538 753 602 818 q 416 643 450 663 q 274 609 350 605 q 92 689 174 616 q 157 821 111 731 q 187 844 170 844 q 213 825 206 844 q 189 800 217 806 q 301 724 195 739 q 401 742 365 715 q 487 834 433 765 q 578 932 541 903 q 726 977 642 977 q 837 952 762 977 z "},"ఢ":{"ha":982,"x_min":0,"x_max":873,"o":"m 755 372 q 738 409 755 393 q 697 425 720 425 q 636 372 636 425 q 697 321 636 321 q 755 372 755 321 m 629 514 l 583 514 q 583 536 583 528 q 582 553 582 544 q 601 553 605 553 q 604 568 605 553 q 438 608 604 608 q 243 542 320 608 q 167 374 167 476 q 209 260 167 309 q 316 212 251 212 q 426 309 426 212 q 423 335 426 321 q 445 347 427 347 q 465 335 463 346 q 464 312 464 323 q 513 221 464 252 q 618 195 555 195 q 730 222 673 195 q 798 305 798 255 q 795 323 798 315 q 639 245 742 245 q 545 270 586 245 q 496 347 496 298 q 559 452 496 415 q 648 477 604 477 q 873 256 873 477 q 772 53 873 130 q 686 7 770 52 q 618 -57 629 -23 q 556 4 610 -23 q 480 43 484 39 q 446 92 458 64 q 403 45 426 65 q 331 4 368 24 q 274 -57 285 -23 q 205 8 266 -23 q 113 56 119 52 q 0 311 0 148 q 129 579 0 475 q 418 675 250 675 q 799 514 708 675 l 629 514 m 536 -113 q 507 -178 536 -149 q 471 -202 490 -190 q 439 -245 446 -218 q 408 -202 431 -218 q 372 -179 389 -190 q 340 -114 340 -151 q 388 -41 340 -94 q 446 39 439 18 q 500 -41 456 19 q 536 -113 536 -88 m 837 952 q 751 772 834 945 q 709 742 735 738 q 685 768 685 746 q 713 795 685 787 q 663 818 692 818 q 538 753 602 818 q 416 643 450 663 q 274 609 350 605 q 92 689 174 616 q 157 821 111 731 q 187 844 170 844 q 213 825 206 844 q 189 800 217 806 q 301 724 195 739 q 401 742 365 715 q 487 834 433 765 q 578 932 541 903 q 726 977 642 977 q 837 952 762 977 z "},"ణ":{"ha":1017,"x_min":0,"x_max":909,"o":"m 764 317 q 739 386 764 357 q 675 415 713 415 q 576 305 576 415 q 604 255 576 275 q 662 235 631 235 q 732 258 700 235 q 764 317 764 281 m 221 231 q 288 248 259 231 q 317 288 317 266 q 313 312 317 309 q 298 311 316 311 l 298 363 q 369 320 339 363 q 399 222 399 277 q 316 41 399 103 q 247 3 282 22 q 193 -56 201 -23 q 130 4 180 -24 q 57 47 62 43 q 0 194 0 99 q 94 392 0 359 q 46 438 65 407 q 27 503 27 464 q 100 629 27 582 q 248 670 164 670 q 430 586 392 670 q 629 670 475 670 q 842 555 765 670 q 909 313 909 456 q 793 42 909 126 q 715 1 754 22 q 656 -56 665 -24 q 597 3 646 -24 q 519 43 519 43 q 422 241 422 117 q 494 407 422 346 q 666 467 562 467 q 762 450 728 467 q 844 395 785 441 q 654 566 799 566 q 460 477 472 566 l 415 477 q 250 566 395 566 q 159 551 199 566 q 100 494 100 532 q 133 446 100 465 q 191 431 160 431 q 229 441 214 431 l 229 396 q 118 313 118 400 q 151 254 118 277 q 221 231 183 231 z "},"త":{"ha":882,"x_min":0,"x_max":773,"o":"m 773 336 q 640 88 773 183 q 479 15 606 64 q 362 -56 374 -26 q 259 11 345 -23 q 126 68 148 54 q 0 281 0 149 q 50 469 0 399 q 218 551 107 551 q 365 452 365 551 q 325 362 365 399 q 231 326 285 326 q 80 404 125 326 q 176 273 79 315 q 358 237 255 237 q 574 286 473 237 q 686 418 674 335 q 525 342 614 342 q 429 371 468 342 q 389 456 389 400 q 446 538 389 509 q 549 562 491 562 q 606 552 585 562 q 472 610 544 610 l 288 610 q 260 640 262 610 q 307 670 273 670 q 612 633 556 684 q 704 491 699 587 q 755 422 735 472 q 773 336 773 377 m 598 457 q 544 505 598 505 q 484 457 484 505 q 503 421 484 434 q 544 408 521 408 q 583 422 567 408 q 598 457 598 437 m 270 452 q 213 500 270 500 q 156 452 156 500 q 173 416 156 430 q 213 401 190 401 q 250 418 231 401 q 270 452 270 435 m 772 955 q 693 774 769 948 q 654 745 677 741 q 632 770 632 749 q 659 798 632 789 q 613 821 639 821 q 495 760 555 821 q 388 646 442 703 q 270 612 334 608 q 127 677 186 618 q 187 808 145 719 q 214 831 198 831 q 236 812 232 831 q 216 788 240 793 q 297 727 235 736 q 373 744 343 720 q 452 837 403 768 q 536 935 500 906 q 670 979 593 979 q 772 955 704 979 z "},"థ":{"ha":952,"x_min":0,"x_max":844,"o":"m 844 312 q 804 148 844 224 q 692 30 764 68 q 625 -1 658 14 q 571 -57 583 -24 q 522 -1 563 -24 q 456 33 490 16 q 423 69 430 49 q 382 33 408 47 q 307 -1 345 15 q 252 -57 262 -23 q 199 3 241 -24 q 132 43 165 23 q 38 154 76 87 q 0 282 0 221 q 119 574 0 471 q 427 670 233 670 q 720 585 609 670 q 844 312 844 490 m 708 389 q 612 560 708 499 q 411 610 529 610 q 225 562 302 610 q 136 403 136 506 q 171 296 136 339 q 271 248 209 248 q 361 275 321 248 q 406 353 406 305 q 429 373 406 373 q 463 353 463 373 q 460 334 460 343 q 496 270 460 293 q 572 248 529 248 q 667 291 627 248 q 708 389 708 334 m 487 463 q 434 406 487 406 q 376 457 376 406 q 431 517 376 517 q 487 463 487 517 m 510 -113 q 481 -178 510 -149 q 445 -202 464 -190 q 414 -245 420 -218 q 382 -202 406 -218 q 346 -179 363 -190 q 315 -114 315 -151 q 362 -41 315 -94 q 420 39 414 18 q 475 -41 430 19 q 510 -113 510 -88 m 788 952 q 709 772 785 945 q 671 742 694 738 q 650 768 650 746 q 675 795 650 787 q 629 818 655 818 q 515 753 574 818 q 404 643 435 663 q 274 609 343 605 q 109 689 183 616 q 168 821 126 731 q 195 844 179 844 q 218 825 213 844 q 197 800 222 806 q 298 724 202 739 q 391 742 357 715 q 469 834 419 765 q 552 932 518 903 q 686 977 609 977 q 788 952 720 977 z "},"ద":{"ha":952,"x_min":0,"x_max":844,"o":"m 844 312 q 804 148 844 224 q 692 30 764 68 q 625 -1 658 14 q 571 -57 583 -24 q 522 -1 563 -24 q 456 33 490 16 q 423 69 430 49 q 382 33 408 47 q 307 -1 345 15 q 252 -57 262 -23 q 199 3 241 -24 q 132 43 165 23 q 38 154 76 87 q 0 282 0 221 q 119 574 0 471 q 427 670 233 670 q 720 585 609 670 q 844 312 844 490 m 708 389 q 612 560 708 499 q 411 610 529 610 q 225 562 302 610 q 136 403 136 506 q 171 296 136 339 q 271 248 209 248 q 361 275 321 248 q 406 353 406 305 q 429 373 406 373 q 463 353 463 373 q 460 334 460 343 q 496 270 460 293 q 572 248 529 248 q 667 291 627 248 q 708 389 708 334 m 788 952 q 709 772 785 945 q 671 742 694 738 q 650 768 650 746 q 675 795 650 787 q 629 818 655 818 q 515 753 574 818 q 404 643 435 663 q 274 609 343 605 q 109 689 183 616 q 168 821 126 731 q 195 844 179 844 q 218 825 213 844 q 197 800 222 806 q 298 724 202 739 q 391 742 357 715 q 469 834 419 765 q 552 932 518 903 q 686 977 609 977 q 788 952 720 977 z "},"ధ":{"ha":952,"x_min":0,"x_max":844,"o":"m 844 312 q 804 148 844 224 q 692 30 764 68 q 625 -1 658 14 q 571 -57 583 -24 q 522 -1 563 -24 q 456 33 490 16 q 423 69 430 49 q 382 33 408 47 q 307 -1 345 15 q 252 -57 262 -23 q 199 3 241 -24 q 132 43 165 23 q 38 154 76 87 q 0 282 0 221 q 119 574 0 471 q 427 670 233 670 q 720 585 609 670 q 844 312 844 490 m 708 389 q 612 560 708 499 q 411 610 529 610 q 225 562 302 610 q 136 403 136 506 q 171 296 136 339 q 271 248 209 248 q 361 275 321 248 q 406 353 406 305 q 429 373 406 373 q 463 353 463 373 q 460 334 460 343 q 496 270 460 293 q 572 248 529 248 q 667 291 627 248 q 708 389 708 334 m 510 -113 q 481 -178 510 -149 q 445 -202 464 -190 q 414 -245 420 -218 q 382 -202 406 -218 q 346 -179 363 -190 q 315 -114 315 -151 q 362 -41 315 -94 q 420 39 414 18 q 475 -41 430 19 q 510 -113 510 -88 m 788 952 q 709 772 785 945 q 671 742 694 738 q 650 768 650 746 q 675 795 650 787 q 629 818 655 818 q 515 753 574 818 q 404 643 435 663 q 274 609 343 605 q 109 689 183 616 q 168 821 126 731 q 195 844 179 844 q 218 825 213 844 q 197 800 222 806 q 298 724 202 739 q 391 742 357 715 q 469 834 419 765 q 552 932 518 903 q 686 977 609 977 q 788 952 720 977 z "},"న":{"ha":911,"x_min":0,"x_max":803,"o":"m 275 0 l 65 0 q 0 210 0 122 q 65 394 0 319 q 237 469 130 469 q 389 408 345 469 q 442 296 406 370 q 559 235 473 235 q 658 294 621 235 q 690 411 690 346 q 643 529 690 472 q 213 609 562 637 q 184 637 184 609 q 227 669 184 666 q 349 674 305 675 q 746 562 651 697 q 803 369 803 484 q 701 81 803 187 q 644 33 673 52 q 576 0 610 16 q 526 -56 536 -23 q 463 0 513 -23 q 388 33 425 16 q 320 165 320 79 q 340 249 320 194 q 361 316 361 304 q 337 379 361 350 q 281 408 313 408 q 203 354 232 408 q 180 256 180 309 q 275 0 180 164 m 707 954 q 628 773 704 947 q 589 743 612 739 q 567 769 567 747 q 594 796 567 788 q 548 819 574 819 q 430 758 490 819 q 323 644 377 701 q 209 610 277 606 q 62 675 121 617 q 122 807 80 718 q 149 830 133 830 q 171 811 167 830 q 151 787 175 792 q 232 726 170 735 q 308 743 278 719 q 387 836 338 766 q 471 933 435 905 q 605 978 528 978 q 707 954 639 978 z "},"ప":{"ha":910,"x_min":0,"x_max":802,"o":"m 530 670 l 613 670 q 762 545 709 670 q 802 338 802 450 q 734 114 802 213 q 635 24 711 79 q 548 -54 560 -30 q 482 7 537 -26 q 406 94 427 39 q 322 17 392 50 q 237 -54 252 -16 q 161 8 225 -24 q 54 80 84 47 q 0 248 0 141 q 69 415 0 350 q 240 480 138 480 q 441 355 385 480 q 465 293 449 334 q 583 241 490 241 q 684 294 647 241 q 716 407 716 342 q 692 514 716 469 q 604 570 661 570 q 562 553 562 570 q 564 549 562 548 q 549 549 555 549 q 530 551 544 551 l 530 670 m 335 324 q 304 395 335 365 q 232 425 273 425 q 165 395 193 425 q 137 324 137 365 q 163 253 137 282 q 232 224 190 224 q 335 324 335 224 m 651 954 q 572 773 648 947 q 533 743 556 739 q 511 769 511 747 q 538 796 511 788 q 492 819 518 819 q 374 758 434 819 q 267 644 321 701 q 153 610 221 606 q 7 675 65 617 q 66 807 24 718 q 94 830 77 830 q 115 811 111 830 q 95 787 119 792 q 176 726 114 735 q 252 743 222 719 q 331 836 282 766 q 415 933 380 905 q 549 978 472 978 q 651 954 583 978 z "},"ఫ":{"ha":910,"x_min":0,"x_max":802,"o":"m 530 670 l 613 670 q 762 545 709 670 q 802 338 802 450 q 734 114 802 213 q 635 24 711 79 q 548 -54 560 -30 q 482 7 537 -26 q 406 94 427 39 q 322 17 392 50 q 237 -54 252 -16 q 161 8 225 -24 q 54 80 84 47 q 0 248 0 141 q 69 415 0 350 q 240 480 138 480 q 441 355 385 480 q 465 293 449 334 q 583 241 490 241 q 684 294 647 241 q 716 407 716 342 q 692 514 716 469 q 604 570 661 570 q 562 553 562 570 q 564 549 562 548 q 549 549 555 549 q 530 551 544 551 l 530 670 m 335 324 q 304 395 335 365 q 232 425 273 425 q 165 395 193 425 q 137 324 137 365 q 163 253 137 282 q 232 224 190 224 q 335 324 335 224 m 651 954 q 572 773 648 947 q 533 743 556 739 q 511 769 511 747 q 538 796 511 788 q 492 819 518 819 q 374 758 434 819 q 267 644 321 701 q 153 610 221 606 q 7 675 65 617 q 66 807 24 718 q 94 830 77 830 q 115 811 111 830 q 95 787 119 792 q 176 726 114 735 q 252 743 222 719 q 331 836 282 766 q 415 933 380 905 q 549 978 472 978 q 651 954 583 978 m 494 -92 q 465 -157 494 -129 q 429 -182 448 -170 q 397 -225 404 -198 q 366 -182 389 -198 q 330 -159 347 -170 q 298 -94 298 -130 q 346 -20 298 -73 q 404 60 397 38 q 458 -20 414 39 q 494 -92 494 -68 z "},"బ":{"ha":907,"x_min":0,"x_max":799,"o":"m 525 659 l 608 659 q 758 534 704 659 q 799 327 799 439 q 750 98 799 175 q 652 14 722 53 q 579 -56 591 -20 q 506 19 566 -15 q 419 83 437 60 q 327 15 400 57 q 255 -56 263 -20 q 170 9 239 -20 q 57 72 84 46 q 0 222 0 123 q 42 347 0 292 q 152 418 84 403 q 271 441 212 429 q 345 521 345 464 q 271 595 345 595 q 211 578 236 595 q 186 530 186 562 q 213 498 186 498 q 229 509 228 498 q 254 509 254 509 l 254 473 l 27 473 l 27 492 q 87 621 23 568 q 227 670 146 670 q 414 509 414 670 q 347 414 414 444 q 224 376 285 395 q 157 304 157 353 q 202 247 157 267 q 279 231 237 231 q 414 368 389 231 l 448 368 q 582 233 448 233 q 684 282 647 233 q 715 393 715 327 q 690 503 715 456 q 613 559 662 559 q 568 529 568 559 l 524 529 l 525 659 z "},"భ":{"ha":948,"x_min":0,"x_max":921,"o":"m 250 595 q 167 532 167 595 q 194 499 167 499 q 210 510 209 499 q 232 510 232 510 l 232 473 l 5 473 q 56 610 0 551 q 205 670 113 670 q 392 509 392 670 q 335 412 392 444 q 227 377 319 404 q 159 304 159 358 q 196 251 159 271 q 281 231 233 231 q 415 368 391 231 l 449 368 q 583 233 449 233 q 684 281 647 233 q 720 397 720 328 q 678 533 720 468 q 551 610 628 610 l 473 610 l 473 670 l 551 670 q 753 555 689 670 q 800 327 800 468 q 703 42 800 114 q 636 4 670 23 q 581 -56 593 -22 q 533 4 570 -22 q 479 37 506 20 q 420 83 426 76 q 369 35 401 57 q 305 3 338 19 q 256 -56 263 -22 q 180 4 241 -23 q 90 46 94 45 q 1 222 1 106 q 43 348 1 292 q 153 418 85 404 q 262 441 255 438 q 323 521 323 464 q 250 595 323 595 m 921 952 q 842 772 920 945 q 804 742 827 738 q 783 768 783 746 q 810 795 783 787 q 762 818 789 818 q 673 762 712 818 q 604 659 639 711 q 473 610 553 606 q 327 675 387 617 q 387 807 345 718 q 414 830 397 830 q 435 811 431 830 q 415 787 439 792 q 456 742 426 760 q 517 724 486 724 q 613 789 574 724 q 682 911 647 850 q 819 977 734 977 q 921 952 854 977 m 510 -92 q 481 -157 510 -129 q 445 -182 464 -170 q 414 -225 420 -198 q 382 -182 406 -198 q 346 -159 363 -170 q 315 -94 315 -130 q 362 -20 315 -73 q 420 60 414 38 q 475 -20 430 39 q 510 -92 510 -68 z "},"మ":{"ha":1359,"x_min":0,"x_max":1252,"o":"m 808 372 q 810 327 810 349 q 686 35 810 113 q 613 1 650 18 q 553 -56 564 -23 q 511 0 543 -22 q 458 33 483 16 q 411 73 433 49 q 347 30 381 46 q 278 -1 313 14 q 225 -56 235 -23 q 168 0 213 -24 q 99 34 134 18 q 0 233 0 100 q 68 412 0 347 q 251 477 136 477 q 404 412 338 477 q 490 267 464 355 q 533 255 509 255 q 625 297 579 255 q 671 384 671 339 q 620 526 671 464 q 427 609 553 609 q 237 609 224 609 l 237 669 l 429 669 q 678 594 571 669 q 808 372 799 510 m 355 317 q 324 393 355 361 q 250 425 293 425 q 173 393 205 425 q 141 317 141 362 q 173 243 141 273 q 250 213 205 213 q 325 243 294 213 q 355 317 355 273 m 751 952 q 673 772 749 945 q 635 742 658 738 q 613 768 613 746 q 639 795 613 787 q 593 818 618 818 q 479 753 537 818 q 368 643 399 663 q 237 609 307 605 q 72 689 146 616 q 132 821 90 731 q 159 844 142 844 q 182 825 176 844 q 160 800 186 806 q 262 724 165 739 q 354 742 320 715 q 432 834 382 765 q 515 932 481 903 q 650 977 572 977 q 751 952 684 977 m 921 673 q 1184 567 1114 673 q 1252 351 1252 467 q 1214 187 1252 270 q 1109 49 1175 99 q 1036 7 1073 27 q 978 -57 989 -22 q 905 5 963 -23 q 826 50 836 41 q 783 184 783 96 q 810 358 783 267 q 860 274 829 312 q 1002 225 898 225 q 1124 280 1066 225 q 1181 396 1181 335 q 1128 518 1181 472 q 983 564 1076 564 q 958 540 958 564 l 920 540 l 921 673 z "},"య":{"ha":1685,"x_min":0,"x_max":1576,"o":"m 1135 331 q 1100 170 1135 247 q 997 43 1062 88 q 917 4 958 23 q 846 -57 865 -22 q 776 8 829 -19 q 693 42 760 16 q 628 125 648 60 q 499 28 576 54 q 420 4 460 16 q 354 -57 373 -18 q 244 16 340 -24 q 102 92 133 65 q 0 332 0 182 q 104 576 0 480 q 354 670 205 670 q 602 575 500 670 q 703 332 703 480 q 705 305 703 327 q 764 248 742 263 q 854 222 803 222 q 959 285 916 222 q 998 407 998 342 q 938 548 998 484 q 799 612 878 612 l 718 612 q 688 642 688 612 q 718 670 688 670 l 799 670 q 1035 568 935 670 q 1135 331 1135 467 m 575 414 q 510 555 575 500 q 357 609 445 609 q 202 555 269 609 q 132 411 132 496 q 202 273 132 327 q 357 222 267 222 q 507 274 445 222 q 575 414 575 328 m 1234 952 q 1156 772 1232 945 q 1118 742 1141 738 q 1096 768 1096 746 q 1122 795 1096 787 q 1076 818 1101 818 q 962 753 1020 818 q 850 643 882 663 q 720 609 789 605 q 555 689 629 616 q 614 821 572 731 q 642 844 625 844 q 665 825 659 844 q 643 800 669 806 q 745 724 648 739 q 837 742 803 715 q 915 834 865 765 q 998 932 964 903 q 1133 977 1055 977 q 1234 952 1166 977 m 1245 673 q 1508 567 1438 673 q 1576 351 1576 467 q 1538 187 1576 270 q 1434 49 1499 99 q 1360 7 1397 27 q 1302 -57 1313 -22 q 1229 5 1287 -23 q 1150 50 1160 41 q 1105 184 1105 96 q 1134 358 1105 267 q 1184 274 1153 312 q 1326 225 1221 225 q 1448 280 1390 225 q 1506 396 1506 335 q 1453 518 1506 472 q 1308 564 1400 564 q 1282 540 1282 564 l 1244 540 l 1245 673 z "},"ర":{"ha":833,"x_min":0,"x_max":735,"o":"m 735 334 q 684 163 735 240 q 547 42 633 85 q 444 3 495 22 q 366 -56 378 -23 q 282 5 354 -23 q 170 50 176 47 q 0 334 0 151 q 113 576 0 480 q 366 669 218 669 q 623 576 514 669 q 735 334 735 479 m 585 419 q 519 557 585 505 q 366 610 454 610 q 216 559 278 610 q 148 419 148 505 q 216 275 148 334 q 366 221 279 221 q 519 277 454 221 q 585 419 585 334 m 734 952 q 655 772 731 945 q 617 742 640 738 q 595 768 595 746 q 621 795 595 787 q 575 818 601 818 q 461 753 519 818 q 350 643 381 663 q 220 609 289 605 q 54 689 129 616 q 114 821 72 731 q 141 844 125 844 q 164 825 159 844 q 142 800 168 806 q 244 724 148 739 q 336 742 302 715 q 414 834 365 765 q 498 932 464 903 q 632 977 555 977 q 734 952 666 977 z "},"ఱ":{"ha":943,"x_min":0,"x_max":834,"o":"m 304 537 q 235 610 304 610 q 170 537 170 610 q 235 467 170 467 q 283 488 262 467 q 304 537 304 509 m 330 403 l 465 403 q 438 492 438 444 q 595 669 438 669 q 834 340 834 669 q 810 186 834 260 q 731 52 783 99 q 659 5 728 49 q 602 -57 610 -24 q 541 5 593 -24 q 468 52 475 45 q 420 130 437 83 q 369 42 404 73 q 304 3 368 41 q 251 -57 259 -24 q 189 4 241 -24 q 110 45 149 24 q 0 312 0 127 q 49 536 0 431 q 225 670 113 670 q 351 635 298 670 q 403 538 403 601 q 359 437 403 477 q 254 396 316 396 q 90 494 121 396 q 77 423 77 461 q 121 289 77 343 q 252 227 170 227 q 397 304 378 227 l 454 304 q 502 251 454 271 q 578 232 540 232 q 764 415 764 232 q 621 570 764 570 q 498 475 498 570 q 581 415 498 415 l 581 324 l 374 324 q 353 304 353 300 l 330 304 l 330 403 z "},"ల":{"ha":878,"x_min":0,"x_max":769,"o":"m 694 412 q 559 548 694 548 q 536 548 536 548 q 537 528 536 548 q 513 528 528 528 q 484 526 498 526 q 484 551 484 533 q 484 573 484 556 q 484 665 484 590 q 582 663 547 675 q 769 327 769 601 q 642 83 769 176 q 492 18 614 64 q 387 -57 397 -20 q 264 19 370 -22 q 110 94 141 66 q 0 336 0 184 q 62 566 0 475 q 266 673 133 673 q 415 617 363 673 q 452 533 452 576 q 388 430 452 471 q 266 393 331 393 q 161 431 203 393 q 113 529 119 468 q 107 472 107 499 q 403 240 107 240 q 590 278 506 240 q 694 412 694 327 m 346 551 q 325 598 346 578 q 277 618 304 618 q 205 551 205 618 q 225 506 205 522 q 277 486 250 486 q 325 505 304 486 q 346 551 346 525 z "},"ళ":{"ha":780,"x_min":0,"x_max":837,"o":"m 651 233 q 529 43 651 109 q 423 3 476 23 q 340 -56 353 -24 q 248 1 327 -26 q 125 46 137 41 q 26 203 26 100 q 138 369 26 311 q 34 431 64 400 q 0 524 0 468 q 46 627 0 586 q 136 667 87 661 q 262 642 221 674 q 304 552 304 609 q 272 482 304 511 q 187 456 240 453 q 62 537 95 456 q 323 414 76 414 q 457 449 381 414 q 543 536 543 490 q 492 604 543 589 q 381 612 467 612 q 354 642 354 612 q 381 669 354 669 l 419 669 q 633 530 633 669 q 507 385 633 434 q 651 233 651 350 m 225 568 q 176 623 225 623 q 132 605 141 621 q 122 568 122 589 q 176 522 122 522 q 225 568 225 522 m 479 254 q 340 349 479 349 q 254 326 293 349 q 206 255 206 298 q 345 159 206 159 q 430 184 387 159 q 479 254 479 214 m 837 952 q 758 772 836 945 q 720 742 743 738 q 699 768 699 746 q 726 795 699 787 q 678 818 705 818 q 589 762 628 818 q 519 659 555 711 q 389 610 469 606 q 254 701 302 617 q 302 807 260 718 q 330 830 313 830 q 351 811 347 830 q 331 787 355 792 q 372 742 342 760 q 433 724 401 724 q 529 789 490 724 q 598 911 563 850 q 735 977 650 977 q 837 952 770 977 z "},"వ":{"ha":918,"x_min":0,"x_max":810,"o":"m 808 372 q 810 327 810 349 q 689 37 810 114 q 614 3 651 19 q 553 -56 564 -23 q 511 0 544 -22 q 456 34 484 16 q 411 73 433 49 q 351 30 382 46 q 279 0 315 15 q 225 -56 235 -22 q 165 3 216 -23 q 91 41 127 22 q 0 233 0 109 q 68 412 0 347 q 251 477 136 477 q 404 412 338 477 q 490 267 464 355 q 533 255 509 255 q 625 297 579 255 q 671 384 671 339 q 620 532 671 469 q 429 610 556 610 l 213 610 q 180 640 180 610 q 213 669 182 665 l 430 669 q 680 594 572 669 q 808 372 799 510 m 355 317 q 324 393 355 361 q 250 425 293 425 q 173 393 205 425 q 141 317 141 362 q 173 243 141 273 q 250 213 205 213 q 325 243 294 213 q 355 317 355 273 m 704 954 q 625 773 701 947 q 586 743 609 739 q 564 769 564 747 q 591 796 564 788 q 545 819 571 819 q 427 758 487 819 q 320 644 374 701 q 206 610 274 606 q 60 675 118 617 q 119 807 77 718 q 146 830 130 830 q 168 811 164 830 q 148 787 172 792 q 229 726 167 735 q 305 743 275 719 q 384 836 335 766 q 468 933 433 905 q 602 978 525 978 q 704 954 636 978 z "},"శ":{"ha":1039,"x_min":0,"x_max":1000,"o":"m 728 336 q 575 438 728 438 q 483 410 519 438 q 446 328 446 381 q 594 212 446 212 q 688 248 647 212 q 728 336 728 285 m 387 457 q 217 409 278 458 q 156 267 156 359 q 183 235 156 235 q 201 245 198 235 q 221 245 221 245 l 220 208 l 0 208 q 28 355 0 302 q 149 458 62 416 q 490 524 286 524 q 659 503 594 524 q 699 525 674 507 q 727 555 724 543 q 730 568 730 562 q 631 612 728 612 l 541 612 q 510 642 510 612 q 541 669 510 669 l 663 669 q 777 637 730 669 q 821 557 825 606 q 800 513 818 529 q 764 483 781 496 q 863 395 825 450 q 901 281 901 340 q 776 41 901 127 q 671 -14 768 34 q 591 -79 605 -46 q 490 -5 581 -46 q 365 53 372 47 q 266 241 266 121 q 298 370 266 308 q 387 457 331 431 m 1000 954 q 921 773 997 947 q 882 743 905 739 q 860 769 860 747 q 887 796 860 788 q 841 819 867 819 q 723 758 783 819 q 616 644 670 701 q 502 610 570 606 q 355 675 414 617 q 415 807 373 718 q 442 830 426 830 q 464 811 460 830 q 444 787 468 792 q 525 726 463 735 q 601 743 571 719 q 680 836 631 766 q 764 933 728 905 q 898 978 821 978 q 1000 954 932 978 z "},"ష":{"ha":914,"x_min":0,"x_max":901,"o":"m 646 954 q 567 773 643 947 q 528 743 551 739 q 506 769 506 747 q 533 796 506 788 q 487 819 513 819 q 369 758 429 819 q 262 644 316 701 q 148 610 216 606 q 1 675 60 617 q 61 807 19 718 q 88 830 72 830 q 110 811 106 830 q 90 787 114 792 q 171 726 109 735 q 247 743 217 719 q 326 836 277 766 q 410 933 374 905 q 544 978 467 978 q 646 954 578 978 m 350 328 q 319 398 350 369 q 247 427 288 427 q 180 398 208 427 q 152 328 152 369 q 178 256 152 286 q 247 227 205 227 q 350 328 350 227 m 537 662 q 605 670 572 670 q 772 562 726 670 q 803 336 817 484 q 772 174 803 289 q 746 27 742 65 q 762 -27 749 0 q 803 -62 780 -62 q 869 -5 869 -62 q 901 -47 897 -11 q 773 -178 898 -182 q 678 -136 711 -178 q 654 -62 656 -111 q 667 16 654 -22 q 690 75 675 35 q 640 30 656 42 q 590 1 614 15 q 548 -56 557 -22 q 500 3 537 -22 q 450 36 475 18 q 406 98 425 54 q 339 30 388 58 q 281 1 311 15 q 237 -56 245 -20 q 178 4 228 -22 q 100 41 138 22 q 0 252 0 111 q 69 419 0 354 q 240 484 138 484 q 441 359 387 484 q 465 297 454 330 q 514 244 477 258 q 598 233 540 233 q 696 292 659 233 q 727 414 727 342 q 701 520 727 476 q 629 564 675 564 q 582 536 582 564 l 537 536 l 537 662 z "},"స":{"ha":911,"x_min":0,"x_max":803,"o":"m 513 652 q 570 667 530 667 q 747 578 685 666 q 803 370 803 498 q 640 34 803 138 q 576 0 608 16 q 526 -58 537 -24 q 465 1 517 -24 q 388 35 426 18 q 320 164 320 81 q 340 248 320 193 q 361 315 361 302 q 337 378 361 349 q 281 407 313 407 q 203 353 232 407 q 180 255 180 308 q 279 0 212 88 l 65 0 q 0 209 0 121 q 65 393 0 317 q 237 468 130 468 q 345 446 308 468 q 397 387 376 429 q 442 294 420 340 q 585 233 473 233 q 693 290 652 233 q 731 411 731 340 q 699 517 731 475 q 601 564 663 564 q 559 533 559 564 l 513 533 q 513 589 513 560 q 513 652 513 618 m 648 952 q 570 772 646 945 q 530 742 553 738 q 509 768 509 746 q 536 795 509 787 q 490 818 515 818 q 372 757 431 818 q 264 643 319 700 q 151 609 218 605 q 4 674 62 616 q 64 806 22 716 q 91 829 75 829 q 113 810 109 829 q 92 785 117 791 q 174 724 111 734 q 250 741 220 718 q 328 834 279 765 q 412 932 377 903 q 547 977 469 977 q 648 952 581 977 z "},"హ":{"ha":1343,"x_min":0,"x_max":1234,"o":"m 350 327 q 319 397 350 368 q 247 426 288 426 q 180 397 208 426 q 152 327 152 368 q 178 255 152 285 q 247 225 205 225 q 350 327 350 225 m 1109 346 q 1085 405 1109 384 q 1029 426 1061 426 q 977 406 1001 426 q 948 346 948 381 q 972 289 948 313 q 1029 264 997 264 q 1086 288 1063 264 q 1109 346 1109 312 m 514 671 l 985 671 q 1166 599 1097 671 q 1234 415 1234 526 q 1134 205 1234 277 q 1070 176 1101 191 q 1019 129 1028 157 q 966 176 1009 155 q 902 210 909 205 q 852 335 852 258 q 904 468 852 414 q 1034 522 956 522 q 1175 465 1118 522 q 1039 568 1152 568 l 736 568 q 802 338 802 471 q 765 172 802 255 q 662 37 727 83 q 598 3 631 20 q 548 -57 557 -23 q 496 3 537 -23 q 441 37 469 19 q 406 96 416 60 q 357 39 395 64 q 290 3 324 20 q 237 -57 248 -23 q 176 3 225 -23 q 100 41 138 22 q 0 251 0 110 q 69 418 0 353 q 240 483 138 483 q 388 433 335 483 q 465 296 429 393 q 583 244 484 244 q 684 297 647 244 q 716 410 716 343 q 677 523 716 476 q 586 570 637 570 q 562 564 566 570 q 562 548 562 563 q 540 548 552 548 q 514 549 526 549 q 514 592 514 576 q 514 671 514 608 m 646 954 q 567 773 643 947 q 528 743 551 739 q 506 769 506 747 q 533 796 506 788 q 487 819 513 819 q 369 758 429 819 q 262 644 316 701 q 148 610 216 606 q 1 675 60 617 q 61 807 19 718 q 88 830 72 830 q 110 811 106 830 q 90 787 114 792 q 171 726 109 735 q 247 743 217 719 q 326 836 277 766 q 410 933 374 905 q 544 978 467 978 q 646 954 578 978 z "},"ఽ":{"ha":1039,"x_min":0,"x_max":930,"o":"m 180 363 q 179 372 179 368 q 197 391 179 391 q 216 372 216 391 q 197 353 216 362 q 109 327 146 327 q 15 378 56 327 q 53 461 18 422 q 304 543 129 543 q 457 507 385 543 q 547 389 547 464 q 309 244 547 244 q 56 126 56 244 q 68 85 56 96 q 144 164 90 144 q 256 178 182 178 q 562 165 366 178 q 735 156 719 156 q 882 203 882 156 q 868 239 882 214 q 930 146 930 222 q 890 45 930 85 q 730 4 850 4 q 495 27 658 4 q 229 53 309 53 q 121 34 151 53 q 95 22 109 30 q 88 1 88 18 q 0 127 0 27 q 30 227 0 178 q 198 323 73 301 q 327 338 262 330 q 408 408 408 354 q 366 463 408 437 q 292 490 324 490 q 185 465 228 490 q 142 406 142 441 q 163 366 142 372 q 180 363 172 362 z "},"ా":{"ha":1297,"x_min":0,"x_max":1188,"o":"m 868 502 q 876 552 868 529 q 895 590 883 575 l 892 600 l 822 590 l 0 590 l 0 680 l 991 680 q 1131 627 1073 680 q 1188 502 1188 575 q 1141 388 1188 435 q 1028 340 1095 340 q 915 388 962 340 q 868 502 868 435 m 940 502 q 966 439 940 464 q 1028 414 991 414 q 1091 439 1065 414 q 1118 502 1118 464 q 1091 564 1118 538 q 1028 590 1065 590 q 966 564 991 590 q 940 502 940 538 z "},"ి":{"ha":0,"x_min":-195,"x_max":241,"o":"m -138 707 q -71 675 -106 686 q -3 665 -37 665 q 111 704 64 665 q 159 799 159 743 l 149 802 q 93 760 129 774 q 11 746 57 746 q -135 787 -75 746 q -195 887 -195 829 q -134 995 -195 951 q 14 1039 -73 1039 q 176 964 111 1024 q 241 825 241 903 q 170 662 241 730 q -3 594 99 594 q -101 608 -56 594 q -180 648 -146 621 l -138 707 l -138 707 m -106 897 q -71 834 -106 860 q 11 808 -37 808 q 85 831 54 808 q 115 887 115 854 q 85 943 115 920 q 11 967 54 967 q -71 946 -37 967 q -106 897 -106 925 l -106 897 z "},"ీ":{"ha":0,"x_min":-205,"x_max":232,"o":"m -148 716 q -83 684 -121 696 q 1 673 -45 673 q 106 709 62 673 q 149 799 149 746 l 142 806 q 83 768 119 781 q 1 754 46 754 q -144 796 -84 754 q -205 897 -205 838 q -179 962 -205 932 q -111 1005 -153 993 l -111 1012 q -163 1049 -144 1023 q -183 1109 -183 1076 q -129 1209 -183 1168 q 1 1251 -75 1251 q 144 1202 85 1251 q 195 1090 202 1154 l 99 1090 q 70 1153 99 1127 q 1 1179 41 1179 q -64 1158 -37 1179 q -91 1109 -91 1138 q -63 1063 -91 1084 q 5 1036 -35 1042 q 168 962 103 1023 q 232 825 232 902 q 164 662 232 730 q 1 594 96 594 q -92 605 -43 594 q -190 637 -140 616 l -148 716 l -148 716 m -115 897 q -81 847 -115 867 q 1 827 -46 827 q 75 847 45 827 q 106 897 106 867 q 75 946 106 925 q 1 967 45 967 q -81 946 -46 967 q -115 897 -115 925 l -115 897 z "},"ు":{"ha":471,"x_min":-106,"x_max":365,"o":"m 34 673 q 297 567 227 673 q 365 351 365 467 q 327 187 365 270 q 222 49 289 100 q 149 7 186 27 q 91 -57 102 -22 q 18 5 76 -23 q -61 50 -52 41 q -106 184 -106 96 q -77 358 -106 267 q -27 274 -58 312 q 115 225 9 225 q 237 280 179 225 q 294 396 294 335 q 241 518 294 472 q 96 564 189 564 q 71 540 71 564 l 33 540 l 34 673 z "},"ూ":{"ha":859,"x_min":-167,"x_max":749,"o":"m 620 339 q 536 423 620 423 q 482 394 511 423 q 453 339 453 365 q 478 281 453 307 q 536 256 503 256 q 595 280 571 256 q 620 339 620 304 m -27 673 l 473 673 q 701 563 631 673 q 749 404 749 491 q 667 194 749 260 q 593 157 658 187 q 537 109 544 136 q 483 156 529 134 q 415 193 425 184 q 350 331 350 254 q 404 458 350 401 q 540 515 458 515 q 685 457 627 515 q 545 567 662 567 l 236 567 q 304 351 304 475 q 266 187 304 270 q 161 49 227 99 q 88 7 125 27 q 30 -57 41 -22 q -43 5 15 -23 q -122 50 -113 41 q -167 184 -167 96 q -138 349 -167 267 q -88 274 -122 312 q 54 225 -52 225 q 175 286 117 225 q 233 410 233 347 q 182 531 233 483 q 58 579 132 579 q 23 575 31 579 q 15 555 15 571 l -27 555 l -27 673 z "},"ృ":{"ha":339,"x_min":-285,"x_max":319,"o":"m -14 -245 q -81 -195 -14 -195 q -122 -211 -100 -195 q -144 -245 -144 -227 q -122 -286 -144 -271 q -81 -297 -104 -297 q -36 -283 -58 -297 q -14 -245 -14 -270 m 28 146 q 38 149 33 149 q 64 132 61 153 q 45 104 68 109 q 0 125 14 98 l 0 260 q 22 263 9 263 q 180 190 103 263 q 319 -145 319 58 q 278 -336 319 -248 q 163 -476 237 -425 q 50 -519 146 -488 q -35 -578 -24 -544 q -113 -521 -43 -543 q -214 -481 -201 -494 q -285 -336 -285 -427 q -217 -197 -285 -251 q -68 -146 -155 -146 q 27 -167 -15 -146 q 80 -241 80 -193 q 27 -327 80 -296 q -76 -351 -16 -351 q -222 -277 -180 -351 q -160 -358 -224 -328 q -52 -381 -110 -381 q 159 -302 66 -382 q 252 -106 252 -221 q 209 60 252 -18 q 81 165 160 148 q 28 146 37 175 z "},"ౄ":{"ha":747,"x_min":-285,"x_max":666,"o":"m -14 -232 q -81 -182 -14 -182 q -122 -197 -100 -182 q -144 -232 -144 -213 q -122 -273 -144 -258 q -81 -283 -104 -283 q -36 -270 -58 -283 q -14 -232 -14 -256 m 560 4 q 492 72 560 72 q 448 54 469 72 q 425 4 425 33 q 492 -64 425 -64 q 541 -44 521 -64 q 560 4 560 -24 m 14 153 q 23 155 19 155 q 47 133 47 155 q 23 110 47 110 q 0 133 0 110 l 0 184 l 0 184 l 0 274 q 22 277 9 277 l 444 274 q 628 183 570 273 q 666 54 666 123 q 617 -88 666 -27 q 483 -152 564 -152 q 382 -113 420 -152 q 343 -12 343 -75 q 387 99 343 53 q 496 145 431 145 q 614 96 567 145 q 502 184 595 184 l 199 184 q 293 43 266 121 q 319 -133 319 -27 q 163 -463 319 -353 q 50 -506 146 -475 q -35 -564 -24 -530 q -113 -507 -43 -529 q -214 -468 -201 -480 q -285 -323 -285 -414 q -217 -183 -285 -237 q -68 -133 -155 -133 q 27 -153 -15 -133 q 80 -228 80 -179 q 27 -313 80 -282 q -76 -338 -16 -338 q -222 -263 -180 -338 q -206 -311 -231 -285 q -159 -346 -182 -336 q -52 -368 -104 -368 q 159 -288 66 -369 q 252 -92 252 -208 q 209 73 252 -4 q 81 179 160 161 q 56 182 66 182 q 14 153 26 182 z "},"ె":{"ha":0,"x_min":-453,"x_max":216,"o":"m -453 894 l 66 894 q 172 850 127 894 q 216 746 216 807 q 170 637 216 682 q 61 593 125 593 l -106 593 l -106 682 l 73 682 q 111 701 95 682 q 127 746 127 719 q 111 788 127 770 q 72 806 95 806 l -453 806 l -453 894 l -453 894 z "},"ే":{"ha":0,"x_min":-453,"x_max":224,"o":"m -453 891 l -83 891 l -35 886 l -31 891 q -57 928 -47 907 q -66 972 -66 949 q -25 1066 -66 1028 q 73 1104 16 1104 q 180 1057 136 1104 q 224 944 224 1010 l 152 944 q 132 1007 152 981 q 84 1034 111 1034 q 34 1013 54 1034 q 14 963 14 991 q 35 923 14 943 q 90 891 56 903 q 181 829 146 871 q 216 741 216 788 q 170 634 216 678 q 61 590 125 590 l -209 590 l -209 680 l 73 680 q 111 697 95 680 q 127 741 127 715 q 111 784 127 766 q 72 802 95 802 l -453 802 l -453 891 l -453 891 z "},"ై":{"ha":996,"x_min":92,"x_max":903,"o":"m 235 894 l 754 894 q 860 850 817 894 q 903 746 903 807 q 858 637 903 682 q 749 593 812 593 l 581 593 l 581 682 l 762 682 q 800 701 784 682 q 815 746 815 719 q 799 788 815 770 q 760 806 783 806 l 235 806 l 235 894 l 235 894 m 163 -221 q 189 -284 163 -258 q 251 -311 214 -311 q 313 -284 288 -311 q 339 -221 339 -258 q 313 -159 339 -184 q 251 -133 288 -133 q 189 -159 214 -133 q 163 -221 163 -184 l 163 -221 m 92 -221 q 139 -109 92 -156 q 251 -62 186 -62 q 364 -109 317 -62 q 411 -221 411 -156 q 401 -264 411 -241 q 372 -311 391 -288 l 374 -317 l 450 -311 l 857 -311 l 857 -400 l 267 -400 q 143 -348 194 -400 q 92 -221 92 -296 l 92 -221 z "},"ొ":{"ha":787,"x_min":-277,"x_max":788,"o":"m 469 762 q 476 813 469 789 q 496 852 483 837 l 492 857 l 446 852 l 377 852 q 279 825 320 852 q 237 762 237 799 l 155 762 q 104 825 155 799 q -16 852 54 852 q -138 825 -88 852 q -189 758 -189 798 q -154 692 -189 719 q -71 665 -119 665 l 14 665 l 14 590 l -71 590 q -216 639 -156 590 q -277 757 -277 688 q -200 887 -277 833 q -16 941 -123 941 q 112 924 57 941 q 193 876 167 907 l 201 876 q 273 924 227 907 q 377 941 319 941 l 627 941 q 741 888 693 941 q 788 762 788 836 q 741 650 788 697 q 627 604 693 604 q 515 650 562 604 q 469 762 469 697 l 469 762 m 538 762 q 564 699 538 724 q 627 673 590 673 q 691 699 665 673 q 718 762 718 724 q 691 825 718 799 q 627 852 665 852 q 564 825 590 852 q 538 762 538 799 l 538 762 z "},"ో":{"ha":783,"x_min":-271,"x_max":784,"o":"m 464 762 q 471 812 464 789 q 492 852 479 836 l 488 857 l 435 852 l 374 852 q 276 825 317 852 q 235 762 235 799 l 151 762 q 104 825 151 799 q -9 852 57 852 q -132 823 -81 852 q -182 753 -182 795 q -150 690 -182 716 q -73 665 -118 665 l 19 665 l 19 590 l -73 590 q -213 638 -155 590 q -271 753 -271 686 q -195 886 -271 831 q -11 941 -118 941 q 113 924 60 941 q 193 876 167 907 q 250 924 220 907 q 308 941 279 941 l 469 941 l 514 936 l 518 941 q 492 978 502 955 q 483 1029 483 1001 q 527 1117 483 1081 q 632 1153 571 1153 q 736 1105 694 1153 q 773 993 779 1057 l 701 993 q 684 1055 704 1028 q 632 1082 663 1082 q 583 1064 604 1082 q 562 1020 562 1046 q 581 967 562 990 q 627 939 600 944 q 739 877 694 926 q 784 762 784 827 q 736 650 784 697 q 623 604 689 604 q 511 650 557 604 q 464 762 464 697 l 464 762 m 534 762 q 560 699 534 724 q 623 673 586 673 q 687 699 661 673 q 713 762 713 724 q 687 825 713 799 q 623 852 661 852 q 560 825 586 852 q 534 762 534 799 l 534 762 z "},"ౌ":{"ha":833,"x_min":-260,"x_max":833,"o":"m -260 891 l 637 891 q 776 840 719 891 q 833 713 833 788 q 786 602 833 648 q 673 556 739 556 q 555 602 604 556 q 506 713 506 648 q 515 768 506 745 q 538 802 524 791 l 534 808 l 475 802 l 359 802 l 312 808 l 308 802 q 330 774 323 789 q 338 741 338 758 q 296 634 338 678 q 198 590 255 590 l -57 590 l -57 680 l 195 680 q 233 697 217 680 q 248 741 248 715 q 232 784 248 766 q 193 802 216 802 l -260 802 l -260 891 l -260 891 m 585 713 q 610 651 585 677 q 673 625 636 625 q 736 651 709 625 q 762 713 762 677 q 736 777 762 751 q 673 802 709 802 q 610 777 636 802 q 585 713 585 751 l 585 713 z "},"్":{"ha":0,"x_min":37,"x_max":598,"o":"m 319 604 l 176 604 q 77 654 117 614 q 37 746 37 694 q 52 804 37 777 q 92 846 66 831 l 92 852 q 52 899 66 871 q 37 958 37 926 q 84 1070 37 1023 q 198 1118 132 1118 l 598 1118 l 598 1029 l 199 1029 q 148 1008 170 1029 q 126 958 126 987 q 142 907 126 928 q 179 887 157 887 l 372 887 l 372 799 l 182 799 q 142 783 159 799 q 126 746 126 768 q 142 707 126 723 q 179 692 157 692 l 319 692 l 319 604 l 319 604 z "},"ౕ":{"ha":525,"x_min":92,"x_max":433,"o":"m 155 643 q 109 704 125 667 q 92 780 92 741 q 144 880 92 838 q 269 922 195 922 q 368 888 323 922 q 433 795 412 853 l 355 762 q 313 814 336 795 q 269 833 290 833 q 207 812 232 833 q 182 762 182 791 q 198 708 182 735 q 245 654 214 681 l 155 643 l 155 643 z "},"ౖ":{"ha":0,"x_min":-865,"x_max":-144,"o":"m -826 -271 q -810 -315 -826 -294 q -770 -335 -793 -335 q -726 -311 -750 -335 q -703 -267 -703 -288 q -719 -219 -703 -241 q -758 -197 -735 -197 q -803 -222 -780 -197 q -826 -271 -826 -248 m -157 -315 q -167 -316 -161 -316 q -190 -294 -190 -316 q -167 -271 -190 -271 q -144 -294 -144 -271 l -144 -351 l -144 -351 l -144 -456 l -606 -456 q -865 -266 -865 -456 q -822 -160 -865 -198 q -711 -122 -779 -122 q -602 -178 -635 -122 q -583 -248 -583 -210 q -636 -347 -583 -332 l -199 -347 q -170 -338 -184 -347 q -157 -315 -155 -328 z "},"ౘ":{"ha":977,"x_min":0,"x_max":868,"o":"m 0 538 l 366 538 l 366 427 q 324 433 345 433 q 247 411 282 433 q 208 345 208 385 q 248 270 208 302 q 332 237 289 237 q 414 268 378 237 q 449 345 449 298 q 448 363 449 354 l 496 363 q 519 283 492 315 q 595 251 547 251 q 692 302 652 251 q 731 408 726 347 q 658 572 741 519 q 431 610 586 618 q 388 635 391 608 q 434 670 388 666 q 533 670 425 670 q 779 566 682 670 q 868 334 868 465 q 766 39 868 113 q 694 7 731 23 q 624 -56 635 -23 q 570 1 614 -23 q 506 37 507 35 q 465 91 481 58 q 422 35 453 71 q 350 1 422 35 q 289 -56 298 -23 q 231 1 281 -23 q 155 38 193 20 q 66 136 99 76 q 34 255 34 195 q 157 425 34 377 l 73 425 q 52 425 52 425 q 47 406 47 423 q 26 406 38 406 q 0 406 14 406 l 0 538 m 867 911 q 788 749 865 905 q 750 722 773 719 q 728 746 728 726 q 755 770 728 762 q 708 791 735 791 q 618 741 658 791 q 549 648 585 694 q 419 604 499 600 q 273 662 332 610 q 332 781 290 700 q 359 802 343 802 q 381 784 377 802 q 361 762 385 768 q 401 722 372 738 q 463 707 431 707 q 559 765 519 707 q 628 875 593 819 q 765 933 680 933 q 867 911 800 933 m 629 1031 q 606 1080 629 1054 q 562 1105 583 1105 q 522 1083 538 1105 q 506 1035 506 1061 q 530 991 506 1015 q 574 967 553 967 q 613 987 597 967 q 629 1031 629 1008 m 14 987 q 26 964 11 974 q 56 955 41 955 l 439 955 q 387 1054 387 970 q 406 1124 387 1092 q 514 1180 438 1180 q 625 1142 582 1180 q 669 1036 669 1104 q 410 846 669 846 l 0 846 l 0 951 l 0 951 l 0 1008 q 23 1031 0 1031 q 46 1008 46 1031 q 23 986 46 986 q 14 987 18 986 z "},"ౙ":{"ha":841,"x_min":0,"x_max":751,"o":"m 18 479 q 56 604 15 551 q 202 673 107 673 q 381 532 335 673 q 496 434 414 434 q 601 494 606 434 q 574 545 598 524 q 521 566 551 566 q 444 524 468 566 l 445 665 q 537 682 491 682 q 659 638 609 682 q 709 522 709 594 q 644 411 709 453 q 514 373 589 374 q 363 442 438 372 q 244 357 336 385 q 167 281 167 334 q 263 209 167 209 q 366 290 366 209 q 365 311 366 300 l 401 311 q 533 209 410 209 q 662 298 662 209 q 625 362 662 330 q 646 363 636 363 q 730 302 703 363 q 747 193 751 255 q 665 38 742 95 q 601 1 633 20 q 549 -56 557 -24 q 503 0 540 -23 q 444 33 473 16 q 380 92 411 56 q 312 27 347 49 q 247 0 279 14 q 197 -56 203 -23 q 145 3 187 -23 q 80 38 113 20 q 0 210 0 98 q 29 313 0 264 q 107 380 58 361 q 251 420 156 392 q 324 519 324 445 q 252 587 324 587 q 183 511 172 587 q 205 498 191 498 q 222 509 222 498 q 244 509 244 509 l 243 481 q 182 480 227 481 q 18 479 138 479 m 690 945 q 667 994 690 968 q 623 1020 644 1020 q 583 998 600 1020 q 567 949 567 975 q 591 905 567 929 q 635 882 614 882 q 674 902 658 882 q 690 945 690 922 m 15 902 q 27 879 12 888 q 57 869 42 869 l 500 869 q 448 968 448 884 q 467 1039 448 1006 q 575 1095 499 1095 q 686 1057 643 1095 q 730 951 730 1019 q 471 761 730 761 l 1 761 l 1 865 l 1 865 l 1 922 q 24 945 1 945 q 47 922 47 945 q 24 901 47 901 q 15 902 19 901 z "},"ౠ":{"ha":2154,"x_min":0,"x_max":2045,"o":"m 525 659 l 608 659 q 758 534 704 659 q 799 327 799 439 q 750 98 799 175 q 652 14 722 53 q 579 -56 591 -20 q 506 19 566 -15 q 419 83 437 60 q 327 15 400 57 q 255 -56 263 -20 q 170 9 239 -20 q 57 72 84 46 q 0 222 0 123 q 42 347 0 292 q 152 418 84 403 q 271 441 212 429 q 345 521 345 464 q 271 595 345 595 q 211 578 236 595 q 186 530 186 562 q 213 498 186 498 q 229 509 228 498 q 254 509 254 509 l 254 473 l 27 473 l 27 492 q 87 621 23 568 q 227 670 146 670 q 414 509 414 670 q 347 414 414 444 q 224 376 285 395 q 157 304 157 353 q 202 247 157 267 q 279 231 237 231 q 414 368 389 231 l 448 368 q 582 233 448 233 q 684 282 647 233 q 715 393 715 327 q 690 503 715 456 q 613 559 662 559 q 568 529 568 559 l 524 529 l 525 659 m 1918 342 q 1835 426 1918 426 q 1781 397 1809 426 q 1752 342 1752 368 q 1777 283 1752 309 q 1835 258 1803 258 q 1893 282 1869 258 q 1918 342 1918 307 m 1366 563 l 1345 563 q 1320 540 1320 563 l 1282 540 l 1282 673 l 1774 673 q 1969 597 1893 673 q 2045 403 2045 522 q 1984 227 2045 301 q 1823 148 1921 148 q 1699 195 1747 148 q 1652 320 1652 243 q 1706 458 1652 401 q 1839 514 1759 514 q 1983 456 1925 514 q 1845 564 1960 563 l 1541 566 q 1606 350 1606 473 q 1575 198 1606 277 q 1489 66 1544 119 q 1404 11 1480 57 q 1337 -57 1347 -23 q 1265 5 1322 -23 q 1184 52 1196 41 q 1146 138 1146 87 q 1070 49 1112 81 q 996 5 1034 27 q 939 -57 949 -22 q 869 5 928 -23 q 789 49 799 41 q 745 182 745 94 q 791 401 745 260 q 852 281 808 320 q 963 251 876 251 q 1086 283 1040 251 q 1138 395 1138 321 q 977 563 1138 548 q 955 564 960 563 q 944 564 949 564 q 918 540 918 564 l 882 540 q 883 605 882 567 q 883 671 883 642 q 928 674 906 674 q 1126 583 1048 674 q 1207 377 1198 502 l 1256 292 q 1362 251 1287 251 q 1485 283 1439 251 q 1538 395 1538 321 q 1485 517 1538 467 q 1366 563 1434 563 z "},"ౡ":{"ha":1645,"x_min":0,"x_max":1537,"o":"m 1328 635 l 883 633 l 883 613 q 859 614 873 613 q 831 614 845 614 l 831 723 l 1256 723 q 1484 620 1417 723 q 1537 445 1537 540 q 1442 245 1537 316 q 1373 210 1435 240 q 1320 165 1326 189 q 1265 212 1310 187 q 1198 250 1208 240 q 1133 378 1133 311 q 1187 516 1133 460 q 1322 572 1241 572 q 1468 514 1409 572 q 1328 635 1442 635 m 1400 391 q 1316 475 1400 475 q 1261 455 1290 475 q 1232 391 1232 435 q 1257 332 1232 358 q 1316 307 1283 307 q 1375 331 1351 307 q 1400 391 1400 355 m 3 575 q 68 731 0 669 q 243 793 136 793 q 343 768 297 793 q 422 677 389 742 q 487 768 433 742 q 597 793 541 793 q 742 732 678 793 q 802 575 806 671 q 753 430 799 490 q 632 324 708 370 q 528 241 575 288 q 481 146 481 194 q 532 43 481 85 q 654 0 583 0 q 840 72 769 0 q 962 319 911 144 q 978 532 990 420 q 863 628 928 669 l 890 616 q 901 576 909 602 q 831 582 873 533 l 831 723 q 1018 589 968 723 q 1044 232 1067 456 q 966 -7 1021 81 q 772 -146 895 -115 q 658 -214 686 -160 q 510 -121 629 -164 q 378 75 391 -79 q 442 262 378 190 q 581 384 506 335 q 671 473 637 422 q 704 576 704 525 q 673 652 704 621 q 597 682 642 682 q 494 631 536 682 q 452 532 452 579 l 388 532 q 345 631 388 579 q 243 682 302 682 q 167 652 198 682 q 136 576 136 621 q 167 532 136 555 q 217 563 217 515 l 270 563 l 270 471 l 23 467 q 3 575 8 506 z "},"ౢ":{"ha":0,"x_min":-700,"x_max":-54,"o":"m -699 -277 q -659 -188 -700 -224 q -553 -152 -618 -152 q -493 -167 -521 -152 q -445 -218 -465 -182 q -406 -167 -438 -182 q -339 -152 -373 -152 q -252 -187 -290 -152 q -216 -277 -213 -222 q -244 -361 -217 -327 q -317 -422 -271 -395 q -380 -469 -353 -442 q -408 -524 -408 -496 q -378 -584 -408 -559 q -305 -609 -347 -609 q -192 -567 -235 -609 q -118 -425 -149 -525 q -109 -302 -102 -366 q -178 -247 -121 -252 l -161 -254 q -156 -277 -151 -262 q -197 -274 -172 -301 l -197 -193 q -84 -269 -114 -193 q -68 -475 -54 -346 q -117 -612 -83 -560 q -233 -692 -159 -674 q -302 -731 -285 -700 q -414 -675 -317 -701 q -518 -562 -510 -650 q -454 -441 -518 -479 q -353 -384 -363 -391 q -294 -335 -330 -370 q -274 -277 -274 -316 q -293 -233 -274 -251 q -339 -216 -312 -216 q -402 -245 -377 -216 q -427 -302 -427 -275 l -465 -302 q -491 -245 -465 -275 q -553 -216 -517 -216 q -600 -233 -581 -216 q -618 -277 -618 -251 q -600 -302 -618 -289 q -568 -285 -568 -312 l -537 -285 l -537 -338 l -686 -339 q -699 -277 -696 -317 z "},"ౣ":{"ha":0,"x_min":-694,"x_max":198,"o":"m 77 -243 l -180 -243 l -180 -254 q -195 -254 -186 -254 q -212 -254 -203 -254 l -212 -190 l 35 -190 q 168 -250 129 -190 q 198 -353 198 -297 q 144 -468 198 -427 q 103 -488 140 -472 q 73 -515 77 -502 q 42 -488 66 -503 q 1 -465 8 -472 q -38 -392 -38 -430 q -5 -311 -38 -343 q 75 -278 27 -278 q 160 -312 126 -278 q 77 -243 144 -243 m 119 -385 q 71 -335 119 -335 q 39 -347 56 -335 q 22 -385 22 -358 q 37 -417 22 -403 q 71 -431 53 -431 q 106 -418 92 -431 q 119 -385 119 -404 m -693 -277 q -655 -186 -694 -222 q -553 -151 -616 -151 q -495 -165 -522 -151 q -449 -218 -468 -179 q -411 -165 -442 -179 q -347 -151 -380 -151 q -262 -186 -300 -151 q -228 -277 -225 -221 q -256 -361 -229 -327 q -327 -423 -282 -396 q -387 -472 -361 -445 q -414 -526 -414 -499 q -385 -587 -414 -562 q -313 -612 -355 -612 q -205 -569 -247 -612 q -134 -426 -164 -526 q -126 -301 -118 -365 q -193 -245 -156 -222 l -178 -252 q -171 -275 -167 -262 q -212 -273 -186 -301 l -212 -190 q -102 -268 -132 -190 q -85 -476 -73 -346 q -132 -616 -102 -564 q -245 -696 -174 -678 q -312 -736 -296 -704 q -398 -682 -330 -707 q -475 -568 -467 -656 q -437 -459 -475 -502 q -357 -388 -400 -416 q -304 -335 -324 -365 q -285 -275 -285 -305 q -303 -233 -285 -250 q -347 -216 -321 -216 q -408 -245 -384 -216 q -431 -301 -431 -274 l -469 -301 q -494 -245 -469 -274 q -553 -216 -518 -216 q -597 -233 -578 -216 q -616 -275 -616 -250 q -598 -301 -616 -289 q -568 -285 -568 -312 l -537 -285 l -537 -338 l -681 -339 q -693 -277 -690 -316 z "},"౦":{"ha":844,"x_min":0,"x_max":735,"o":"m 735 334 q 684 163 735 240 q 547 42 633 85 q 444 3 495 22 q 366 -56 378 -23 q 282 5 354 -23 q 170 50 176 47 q 0 334 0 151 q 113 576 0 480 q 366 669 218 669 q 623 576 514 669 q 735 334 735 479 m 585 419 q 519 557 585 505 q 366 610 454 610 q 216 559 278 610 q 148 419 148 505 q 216 275 148 334 q 366 221 279 221 q 519 277 454 221 q 585 419 585 334 z "},"౧":{"ha":872,"x_min":0,"x_max":764,"o":"m 343 26 l 343 0 l 99 1 q 23 134 39 90 q 0 293 0 195 q 96 533 0 412 q 353 669 205 669 q 647 570 536 669 q 764 269 764 463 q 690 3 764 184 l 498 3 q 553 163 524 64 q 595 342 587 277 q 598 377 598 358 q 560 529 598 465 q 427 609 514 609 q 250 522 317 609 q 186 338 186 445 q 214 179 186 262 q 278 54 241 104 q 315 26 308 15 l 343 26 z "},"౨":{"ha":887,"x_min":-4,"x_max":827,"o":"m 804 244 q 734 132 773 213 q 694 75 711 91 q 517 -12 635 5 l -4 -12 l -4 195 l 31 195 q 35 168 31 174 q 61 163 38 163 l 419 164 q 594 221 540 165 q 648 399 659 296 q 609 540 643 480 q 445 636 564 623 q 453 587 453 605 q 382 477 448 518 q 269 454 331 453 q 177 490 218 454 q 146 589 136 525 q 342 696 170 686 q 665 583 566 709 q 742 438 709 521 q 770 352 758 387 q 794 296 783 317 q 827 260 806 274 l 804 244 m 358 585 q 346 625 358 606 q 292 643 334 643 q 237 595 245 642 q 251 554 233 568 q 293 541 269 540 q 358 585 358 541 z "},"౩":{"ha":735,"x_min":0,"x_max":665,"o":"m 290 475 q 289 486 289 480 q 311 509 289 509 q 334 486 334 509 q 311 461 334 461 l 35 461 q 125 644 30 583 q 328 696 203 696 q 518 658 437 696 q 627 511 627 609 q 575 415 627 452 q 665 266 665 369 q 553 76 665 155 q 420 16 524 56 q 313 -43 332 -15 q 221 11 300 -16 q 102 60 122 47 q 0 227 0 123 q 24 323 0 275 q 94 388 53 376 q 87 334 87 373 q 164 228 87 270 q 296 193 229 193 q 411 214 361 193 q 479 302 479 245 q 446 365 479 342 q 378 385 418 385 q 311 355 330 385 l 311 422 q 332 420 320 420 q 452 524 452 420 q 345 613 452 613 q 274 587 301 613 q 247 524 247 562 q 254 487 247 505 q 290 475 262 469 z "},"౪":{"ha":711,"x_min":0,"x_max":651,"o":"m 651 233 q 529 43 651 109 q 423 3 476 23 q 340 -56 353 -24 q 248 1 327 -26 q 125 46 137 41 q 26 203 26 100 q 138 372 26 311 q 43 429 79 393 q 0 524 8 464 q 37 635 0 586 q 123 682 69 669 q 218 658 208 697 q 157 620 228 618 q 85 534 87 621 q 323 414 98 427 q 472 442 407 407 q 543 536 537 477 q 503 610 543 589 q 437 624 479 621 q 410 654 407 627 q 460 684 411 686 q 633 530 625 670 q 505 373 633 434 q 651 233 651 350 m 479 254 q 340 349 479 349 q 254 326 293 349 q 206 255 206 298 q 345 159 206 159 q 430 184 387 159 q 479 254 479 214 z "},"౫":{"ha":742,"x_min":8,"x_max":694,"o":"m 198 81 q 399 232 332 167 q 500 363 467 297 q 402 453 441 404 q 357 555 363 502 q 385 656 349 612 q 479 708 422 701 q 581 678 536 716 q 633 581 627 640 q 626 484 642 528 q 574 399 610 439 q 633 347 605 377 q 680 263 661 316 q 675 146 694 189 q 634 87 656 104 q 581 58 612 69 q 529 22 543 49 q 475 56 514 47 q 410 95 425 68 q 565 132 526 85 q 598 245 604 178 q 581 304 594 282 q 553 336 567 327 q 240 71 467 178 q 198 81 222 79 m 525 460 q 562 505 553 468 q 567 571 571 541 q 540 631 562 609 q 487 648 518 652 q 437 621 456 644 q 423 564 419 597 q 458 488 429 525 q 525 460 487 452 m 391 309 q 288 117 350 269 q 110 0 237 0 q 100 0 104 0 q 8 16 64 0 q 176 140 126 45 q 237 328 232 232 q 193 522 235 450 q 11 636 129 633 q 34 651 20 646 q 107 667 68 667 q 193 651 146 667 q 302 564 262 627 q 350 452 334 510 q 378 370 366 393 q 418 328 393 343 l 391 309 z "},"౬":{"ha":929,"x_min":-12,"x_max":823,"o":"m 749 198 q 779 204 776 198 q 783 235 783 210 l 823 235 l 823 0 l 232 0 q 85 77 137 0 q 46 161 65 121 q -12 227 16 216 q 41 300 16 236 q 75 385 68 378 q 119 415 98 410 q 68 477 107 423 q 9 528 37 522 q 68 581 37 537 q 119 640 107 631 q 229 677 163 677 l 578 677 l 578 586 l 233 586 q 163 530 163 591 q 239 479 163 479 l 576 479 l 576 327 l 209 327 q 130 262 130 327 q 212 199 130 199 l 749 198 z "},"౭":{"ha":675,"x_min":14,"x_max":616,"o":"m 427 308 l 571 308 q 616 193 616 250 q 553 80 616 123 q 425 19 536 69 q 321 -60 345 -16 q 206 31 290 -11 q 76 104 100 84 q 14 244 14 156 q 141 401 14 353 q 361 434 229 434 q 500 511 500 434 q 336 600 500 600 q 264 586 296 600 q 224 534 224 570 q 259 506 224 506 l 259 475 l 45 475 q 138 629 45 574 q 324 674 217 674 q 521 647 456 674 q 612 509 612 609 q 503 397 612 434 q 334 372 431 373 q 220 358 254 370 q 161 274 161 336 q 319 197 161 197 q 460 248 460 197 q 427 281 460 277 l 427 308 z "},"౮":{"ha":1004,"x_min":-8,"x_max":776,"o":"m 278 697 q 217 629 241 671 q 167 505 187 579 q 156 362 149 438 q 248 168 179 248 q 381 88 300 103 q 543 161 490 90 q 602 289 591 222 q 609 373 608 331 q 589 534 609 441 q 533 694 559 633 l 663 696 q 750 422 736 514 q 662 95 776 231 q 477 -24 597 16 q 378 -90 419 -43 q 262 -20 326 -45 q 50 156 119 35 q -5 411 -8 277 q 23 564 0 503 q 99 697 39 609 l 278 697 l 278 697 z "},"౯":{"ha":945,"x_min":-12,"x_max":823,"o":"m 212 454 q 130 392 130 454 q 209 327 130 327 l 576 327 l 576 175 l 239 175 q 163 123 163 175 q 233 68 163 62 l 578 68 l 578 -23 l 229 -23 q 119 14 163 -23 q 68 73 107 23 q 9 126 37 117 q 68 176 37 132 q 119 239 107 231 q 75 269 98 244 q 41 354 68 275 q -12 427 16 418 q 46 492 16 438 q 85 576 65 533 q 232 654 137 654 l 823 654 l 823 419 l 783 419 q 779 450 783 444 q 749 456 776 456 l 212 454 z "},"౸":{"ha":959,"x_min":46,"x_max":905,"o":"m 448 844 q 323 821 378 844 q 222 754 267 799 q 130 513 130 663 q 225 269 130 363 q 442 174 315 174 q 681 266 593 174 q 773 506 773 355 q 749 644 773 582 q 677 751 726 705 q 448 844 583 844 m 772 241 q 905 109 905 190 q 689 -79 905 3 q 533 -127 602 -111 q 407 -145 464 -144 l 396 -114 l 388 -81 q 498 -68 434 -81 q 644 -26 562 -54 q 841 107 841 41 q 715 193 841 157 q 458 102 608 102 q 160 228 279 102 q 46 513 46 346 q 160 808 46 686 q 442 929 274 929 q 608 897 532 929 q 741 804 684 864 q 823 671 793 746 q 852 510 852 595 q 769 252 852 361 l 772 241 z "},"౹":{"ha":218,"x_min":52,"x_max":149,"o":"m 149 0 l 52 0 l 52 928 l 149 928 l 149 0 z "},"౺":{"ha":859,"x_min":0,"x_max":750,"o":"m 553 361 l 552 233 q 556 213 553 221 q 579 148 555 174 q 629 136 606 132 q 684 205 694 148 q 722 170 711 203 q 620 -3 750 22 q 518 9 563 -14 q 467 109 472 37 l 450 368 q 388 278 442 308 q 302 240 372 267 q 241 193 247 216 q 171 240 232 216 q 83 286 100 269 q 0 532 3 342 q 1 575 1 548 l 1 936 l 102 936 l 102 586 q 126 515 102 545 q 228 475 159 476 l 450 476 l 450 930 l 552 930 l 553 361 z "},"౻":{"ha":1134,"x_min":53,"x_max":1004,"o":"m 231 418 q 173 427 201 418 q 122 453 145 437 q 70 519 87 477 q 53 618 53 562 l 53 940 l 151 940 l 151 629 q 174 559 151 587 q 215 530 190 540 q 271 521 240 521 l 382 521 q 464 551 439 521 q 458 585 472 559 q 458 618 458 589 l 458 941 l 556 941 l 556 629 q 582 559 556 591 q 681 521 613 521 l 906 521 l 906 933 l 1004 933 l 1004 0 l 906 0 l 906 419 l 637 419 q 510 472 585 472 q 407 419 433 472 l 231 418 z "},"౼":{"ha":1081,"x_min":47,"x_max":1028,"o":"m 47 419 l 47 519 l 1028 519 l 1028 419 l 47 419 z "},"౽":{"ha":1017,"x_min":3,"x_max":933,"o":"m 183 410 q 182 418 182 414 q 199 437 182 437 q 218 418 218 437 q 199 399 218 408 q 111 372 149 372 q 18 423 58 372 q 56 507 20 468 q 307 589 132 589 q 460 553 388 589 q 551 435 551 510 q 312 290 551 290 q 58 172 58 290 q 71 132 58 141 q 148 210 92 190 q 259 224 184 224 q 564 212 369 224 q 738 201 722 201 q 884 248 884 201 q 871 285 884 259 q 933 191 933 269 q 893 91 933 132 q 732 50 853 50 q 498 73 661 50 q 232 99 312 99 q 123 79 153 99 q 98 68 111 75 q 91 47 91 64 q 3 174 3 73 q 33 273 3 224 q 201 368 76 347 q 330 384 264 374 q 411 454 411 400 q 369 509 411 481 q 294 536 327 536 q 189 511 231 536 q 146 452 146 486 q 165 412 146 418 q 183 410 175 408 z "},"౾":{"ha":1188,"x_min":38,"x_max":1096,"o":"m 1082 127 l 1096 -50 q 1066 -79 1096 -79 q 1036 -50 1036 -79 q 1066 -22 1036 -22 q 1074 -18 1073 -22 q 1057 -1 1084 -1 q 1021 -1 1029 0 l 244 0 q 38 119 38 0 q 73 184 38 157 q 176 227 109 210 l 578 320 q 688 373 688 345 q 586 419 688 415 q 408 428 496 423 q 231 437 320 433 l 232 437 q 43 537 43 448 q 209 656 43 623 l 575 732 q 665 784 665 751 q 651 812 665 802 q 613 825 637 822 q 591 827 609 826 q 545 827 572 827 l 133 827 q 98 823 106 827 q 91 803 91 819 l 46 803 q 46 913 46 812 l 537 914 q 747 850 708 914 q 795 802 764 815 q 753 753 764 787 q 613 678 727 700 l 220 593 q 141 542 141 575 q 214 499 141 509 q 262 499 217 499 q 338 496 293 498 l 336 496 l 613 477 q 680 467 648 475 q 734 446 711 460 q 808 385 768 400 q 775 347 784 355 q 754 317 766 338 q 678 274 724 285 l 236 172 q 144 122 144 149 q 233 84 144 84 q 650 97 439 84 q 1082 127 861 110 z "},"౿":{"ha":1268,"x_min":0,"x_max":1160,"o":"m 970 312 q 891 541 1046 467 q 865 555 865 555 q 856 530 865 555 q 827 544 845 536 q 793 559 810 551 q 807 586 798 567 q 819 612 810 593 q 871 716 829 632 q 982 661 949 693 q 1008 172 1160 484 q 726 -34 924 0 q 593 -41 656 -37 q 449 -94 468 -47 q 307 22 434 -46 q 123 140 160 100 q 24 463 0 271 q 137 741 45 636 q 410 844 243 864 q 590 750 532 829 q 623 640 629 693 q 526 519 613 562 q 366 492 449 481 q 241 555 289 502 q 195 686 194 609 q 179 616 183 650 q 506 224 144 324 q 769 203 632 187 q 970 312 922 213 m 492 678 q 473 741 496 712 q 415 774 450 770 q 315 700 324 785 q 332 640 309 665 q 395 606 361 610 q 458 624 429 602 q 492 678 488 646 z "},"‌":{"ha":0,"x_min":0,"x_max":73,"o":"m 0 -562 l 0 1272 l 73 1272 l 73 -562 l 0 -562 l 0 -562 z "},"‍":{"ha":0,"x_min":0,"x_max":313,"o":"m 0 -562 l 0 1272 l 313 1272 l 313 1199 l 73 1199 l 73 -562 l 0 -562 l 0 -562 z "},"₹":{"ha":846,"x_min":0,"x_max":738,"o":"m 437 671 l 126 671 l 96 757 l 416 757 q 163 886 338 891 l 137 886 l 137 849 q 151 831 137 838 q 171 826 164 825 q 170 836 170 830 q 191 859 170 859 q 214 836 214 859 q 191 812 214 812 l 0 812 l 0 972 l 738 972 l 738 875 q 701 883 720 883 l 433 886 l 437 886 q 525 757 490 854 l 689 757 l 728 671 l 541 671 q 458 471 548 549 q 387 403 397 433 q 308 453 373 431 q 202 444 264 458 q 387 164 244 312 q 467 151 434 130 q 484 180 473 156 q 445 79 498 117 q 353 63 401 50 q 208 205 304 76 q 34 536 113 335 q 437 671 484 476 z "},"−":{"ha":868,"x_min":109,"x_max":760,"o":"m 109 -336 l 109 423 l 760 423 l 760 -336 l 109 -336 l 109 -336 m 163 -282 l 705 -282 l 705 369 l 163 369 l 163 -282 l 163 -282 z "},"◌":{"ha":1180,"x_min":92,"x_max":1088,"o":"m 524 783 q 543 829 524 810 q 590 849 563 849 q 637 829 617 849 q 656 783 656 810 q 637 736 656 755 q 590 716 617 716 q 543 736 563 716 q 524 783 524 755 l 524 783 m 524 -81 q 543 -35 524 -54 q 590 -15 563 -15 q 637 -35 617 -15 q 656 -81 656 -54 q 637 -128 656 -109 q 590 -148 617 -148 q 543 -128 563 -148 q 524 -81 524 -109 l 524 -81 m 92 350 q 112 397 92 377 q 159 416 132 416 q 205 397 186 416 q 225 350 225 377 q 205 304 225 323 q 159 285 186 285 q 112 304 132 285 q 92 350 92 323 l 92 350 m 956 350 q 976 397 956 377 q 1023 416 996 416 q 1069 397 1050 416 q 1088 350 1088 377 q 1069 304 1088 323 q 1023 285 1050 285 q 976 304 996 285 q 956 350 956 323 l 956 350 m 151 134 q 170 181 151 161 q 218 201 190 201 q 265 181 245 201 q 285 134 285 161 q 265 87 285 107 q 218 68 245 68 q 170 87 190 68 q 151 134 151 107 l 151 134 m 898 567 q 918 613 898 594 q 964 632 937 632 q 1011 613 991 632 q 1031 567 1031 594 q 1011 520 1031 540 q 964 500 991 500 q 918 520 937 500 q 898 567 898 540 l 898 567 m 741 724 q 760 771 741 751 q 806 791 779 791 q 852 771 833 791 q 872 724 872 751 q 852 678 872 697 q 806 659 833 659 q 760 678 779 659 q 741 724 741 697 l 741 724 m 308 -22 q 328 25 308 5 q 374 45 347 45 q 421 25 401 45 q 441 -22 441 5 q 421 -70 441 -50 q 374 -90 401 -90 q 328 -70 347 -90 q 308 -22 308 -50 l 308 -22 m 151 567 q 170 613 151 594 q 218 632 190 632 q 265 613 245 632 q 285 567 285 594 q 265 520 285 540 q 218 500 245 500 q 170 520 190 500 q 151 567 151 540 l 151 567 m 898 134 q 918 181 898 161 q 964 201 937 201 q 1011 181 991 201 q 1031 134 1031 161 q 1011 87 1031 107 q 964 68 991 68 q 918 87 937 68 q 898 134 898 107 l 898 134 m 308 724 q 328 771 308 751 q 374 791 347 791 q 421 771 401 791 q 441 724 441 751 q 421 678 441 697 q 374 659 401 659 q 328 678 347 659 q 308 724 308 697 l 308 724 m 741 -22 q 760 25 741 5 q 806 45 779 45 q 852 25 833 45 q 872 -22 872 5 q 852 -70 872 -50 q 806 -90 833 -90 q 760 -70 779 -90 q 741 -22 741 -50 l 741 -22 z "},"ﾼ":{"ha":868,"x_min":109,"x_max":760,"o":"m 109 0 l 109 760 l 760 760 l 760 0 l 109 0 l 109 0 m 163 54 l 705 54 l 705 705 l 163 705 l 163 54 l 163 54 z "},"ﾽ":{"ha":868,"x_min":109,"x_max":760,"o":"m 109 0 l 109 760 l 760 760 l 760 0 l 109 0 l 109 0 m 163 54 l 705 54 l 705 705 l 163 705 l 163 54 l 163 54 z "},"ﾾ":{"ha":868,"x_min":109,"x_max":760,"o":"m 109 0 l 109 760 l 760 760 l 760 0 l 109 0 l 109 0 m 163 54 l 705 54 l 705 705 l 163 705 l 163 54 l 163 54 z "},"﾿":{"ha":868,"x_min":109,"x_max":760,"o":"m 109 0 l 109 760 l 760 760 l 760 0 l 109 0 l 109 0 m 163 54 l 705 54 l 705 705 l 163 705 l 163 54 l 163 54 z "},"￀":{"ha":868,"x_min":109,"x_max":760,"o":"m 109 0 l 109 760 l 760 760 l 760 0 l 109 0 l 109 0 m 163 54 l 705 54 l 705 705 l 163 705 l 163 54 l 163 54 z "},"￁":{"ha":868,"x_min":109,"x_max":760,"o":"m 109 0 l 109 760 l 760 760 l 760 0 l 109 0 l 109 0 m 163 54 l 705 54 l 705 705 l 163 705 l 163 54 l 163 54 z "},"ￂ":{"ha":868,"x_min":109,"x_max":760,"o":"m 109 0 l 109 760 l 760 760 l 760 0 l 109 0 l 109 0 m 163 54 l 705 54 l 705 705 l 163 705 l 163 54 l 163 54 z "},"ￃ":{"ha":868,"x_min":109,"x_max":760,"o":"m 109 0 l 109 760 l 760 760 l 760 0 l 109 0 l 109 0 m 163 54 l 705 54 l 705 705 l 163 705 l 163 54 l 163 54 z "},"ￄ":{"ha":868,"x_min":109,"x_max":760,"o":"m 109 0 l 109 760 l 760 760 l 760 0 l 109 0 l 109 0 m 163 54 l 705 54 l 705 705 l 163 705 l 163 54 l 163 54 z "},"ￅ":{"ha":868,"x_min":109,"x_max":760,"o":"m 109 0 l 109 760 l 760 760 l 760 0 l 109 0 l 109 0 m 163 54 l 705 54 l 705 705 l 163 705 l 163 54 l 163 54 z "},"ￆ":{"ha":868,"x_min":109,"x_max":760,"o":"m 109 0 l 109 760 l 760 760 l 760 0 l 109 0 l 109 0 m 163 54 l 705 54 l 705 705 l 163 705 l 163 54 l 163 54 z "},"ￇ":{"ha":868,"x_min":109,"x_max":760,"o":"m 109 0 l 109 760 l 760 760 l 760 0 l 109 0 l 109 0 m 163 54 l 705 54 l 705 705 l 163 705 l 163 54 l 163 54 z "},"￈":{"ha":868,"x_min":109,"x_max":760,"o":"m 109 0 l 109 760 l 760 760 l 760 0 l 109 0 l 109 0 m 163 54 l 705 54 l 705 705 l 163 705 l 163 54 l 163 54 z "},"￉":{"ha":868,"x_min":109,"x_max":760,"o":"m 109 0 l 109 760 l 760 760 l 760 0 l 109 0 l 109 0 m 163 54 l 705 54 l 705 705 l 163 705 l 163 54 l 163 54 z "},"ￊ":{"ha":868,"x_min":109,"x_max":760,"o":"m 109 0 l 109 760 l 760 760 l 760 0 l 109 0 l 109 0 m 163 54 l 705 54 l 705 705 l 163 705 l 163 54 l 163 54 z "},"ￋ":{"ha":868,"x_min":109,"x_max":760,"o":"m 109 0 l 109 760 l 760 760 l 760 0 l 109 0 l 109 0 m 163 54 l 705 54 l 705 705 l 163 705 l 163 54 l 163 54 z "},"ￌ":{"ha":868,"x_min":109,"x_max":760,"o":"m 109 0 l 109 760 l 760 760 l 760 0 l 109 0 l 109 0 m 163 54 l 705 54 l 705 705 l 163 705 l 163 54 l 163 54 z "},"ￍ":{"ha":868,"x_min":109,"x_max":760,"o":"m 109 0 l 109 760 l 760 760 l 760 0 l 109 0 l 109 0 m 163 54 l 705 54 l 705 705 l 163 705 l 163 54 l 163 54 z "},"ￎ":{"ha":868,"x_min":109,"x_max":760,"o":"m 109 0 l 109 760 l 760 760 l 760 0 l 109 0 l 109 0 m 163 54 l 705 54 l 705 705 l 163 705 l 163 54 l 163 54 z "},"ￏ":{"ha":868,"x_min":109,"x_max":760,"o":"m 109 0 l 109 760 l 760 760 l 760 0 l 109 0 l 109 0 m 163 54 l 705 54 l 705 705 l 163 705 l 163 54 l 163 54 z "},"￐":{"ha":868,"x_min":109,"x_max":760,"o":"m 109 0 l 109 760 l 760 760 l 760 0 l 109 0 l 109 0 m 163 54 l 705 54 l 705 705 l 163 705 l 163 54 l 163 54 z "},"￑":{"ha":868,"x_min":109,"x_max":760,"o":"m 109 0 l 109 760 l 760 760 l 760 0 l 109 0 l 109 0 m 163 54 l 705 54 l 705 705 l 163 705 l 163 54 l 163 54 z "},"ￒ":{"ha":868,"x_min":109,"x_max":760,"o":"m 109 0 l 109 760 l 760 760 l 760 0 l 109 0 l 109 0 m 163 54 l 705 54 l 705 705 l 163 705 l 163 54 l 163 54 z "},"ￓ":{"ha":868,"x_min":109,"x_max":760,"o":"m 109 0 l 109 760 l 760 760 l 760 0 l 109 0 l 109 0 m 163 54 l 705 54 l 705 705 l 163 705 l 163 54 l 163 54 z "},"ￔ":{"ha":868,"x_min":109,"x_max":760,"o":"m 109 0 l 109 760 l 760 760 l 760 0 l 109 0 l 109 0 m 163 54 l 705 54 l 705 705 l 163 705 l 163 54 l 163 54 z "},"ￕ":{"ha":868,"x_min":109,"x_max":760,"o":"m 109 0 l 109 760 l 760 760 l 760 0 l 109 0 l 109 0 m 163 54 l 705 54 l 705 705 l 163 705 l 163 54 l 163 54 z "},"ￖ":{"ha":868,"x_min":109,"x_max":760,"o":"m 109 0 l 109 760 l 760 760 l 760 0 l 109 0 l 109 0 m 163 54 l 705 54 l 705 705 l 163 705 l 163 54 l 163 54 z "},"ￗ":{"ha":868,"x_min":109,"x_max":760,"o":"m 109 0 l 109 760 l 760 760 l 760 0 l 109 0 l 109 0 m 163 54 l 705 54 l 705 705 l 163 705 l 163 54 l 163 54 z "},"￘":{"ha":868,"x_min":109,"x_max":760,"o":"m 109 0 l 109 760 l 760 760 l 760 0 l 109 0 l 109 0 m 163 54 l 705 54 l 705 705 l 163 705 l 163 54 l 163 54 z "},"￙":{"ha":868,"x_min":109,"x_max":760,"o":"m 109 0 l 109 760 l 760 760 l 760 0 l 109 0 l 109 0 m 163 54 l 705 54 l 705 705 l 163 705 l 163 54 l 163 54 z "},"ￚ":{"ha":868,"x_min":109,"x_max":760,"o":"m 109 0 l 109 760 l 760 760 l 760 0 l 109 0 l 109 0 m 163 54 l 705 54 l 705 705 l 163 705 l 163 54 l 163 54 z "},"ￛ":{"ha":868,"x_min":109,"x_max":760,"o":"m 109 0 l 109 760 l 760 760 l 760 0 l 109 0 l 109 0 m 163 54 l 705 54 l 705 705 l 163 705 l 163 54 l 163 54 z "},"ￜ":{"ha":868,"x_min":109,"x_max":760,"o":"m 109 0 l 109 760 l 760 760 l 760 0 l 109 0 l 109 0 m 163 54 l 705 54 l 705 705 l 163 705 l 163 54 l 163 54 z "},"￝":{"ha":868,"x_min":109,"x_max":760,"o":"m 109 0 l 109 760 l 760 760 l 760 0 l 109 0 l 109 0 m 163 54 l 705 54 l 705 705 l 163 705 l 163 54 l 163 54 z "},"￞":{"ha":868,"x_min":109,"x_max":760,"o":"m 109 0 l 109 760 l 760 760 l 760 0 l 109 0 l 109 0 m 163 54 l 705 54 l 705 705 l 163 705 l 163 54 l 163 54 z "},"￟":{"ha":868,"x_min":109,"x_max":760,"o":"m 109 0 l 109 760 l 760 760 l 760 0 l 109 0 l 109 0 m 163 54 l 705 54 l 705 705 l 163 705 l 163 54 l 163 54 z "},"￠":{"ha":868,"x_min":109,"x_max":760,"o":"m 109 0 l 109 760 l 760 760 l 760 0 l 109 0 l 109 0 m 163 54 l 705 54 l 705 705 l 163 705 l 163 54 l 163 54 z "},"￡":{"ha":868,"x_min":109,"x_max":760,"o":"m 109 0 l 109 760 l 760 760 l 760 0 l 109 0 l 109 0 m 163 54 l 705 54 l 705 705 l 163 705 l 163 54 l 163 54 z "},"￢":{"ha":868,"x_min":109,"x_max":760,"o":"m 109 0 l 109 760 l 760 760 l 760 0 l 109 0 l 109 0 m 163 54 l 705 54 l 705 705 l 163 705 l 163 54 l 163 54 z "},"￣":{"ha":868,"x_min":109,"x_max":760,"o":"m 109 0 l 109 760 l 760 760 l 760 0 l 109 0 l 109 0 m 163 54 l 705 54 l 705 705 l 163 705 l 163 54 l 163 54 z "},"￧":{"ha":868,"x_min":109,"x_max":760,"o":"m 109 0 l 109 760 l 760 760 l 760 0 l 109 0 l 109 0 m 163 54 l 705 54 l 705 705 l 163 705 l 163 54 l 163 54 z "},"￨":{"ha":1389,"x_min":0,"x_max":0,"o":""},"￩":{"ha":868,"x_min":109,"x_max":760,"o":"m 109 0 l 109 760 l 760 760 l 760 0 l 109 0 l 109 0 m 163 54 l 705 54 l 705 705 l 163 705 l 163 54 l 163 54 z "},"￪":{"ha":868,"x_min":109,"x_max":760,"o":"m 109 0 l 109 760 l 760 760 l 760 0 l 109 0 l 109 0 m 163 54 l 705 54 l 705 705 l 163 705 l 163 54 l 163 54 z "},"￫":{"ha":868,"x_min":109,"x_max":760,"o":"m 109 0 l 109 760 l 760 760 l 760 0 l 109 0 l 109 0 m 163 54 l 705 54 l 705 705 l 163 705 l 163 54 l 163 54 z "},"￬":{"ha":868,"x_min":109,"x_max":760,"o":"m 109 0 l 109 760 l 760 760 l 760 0 l 109 0 l 109 0 m 163 54 l 705 54 l 705 705 l 163 705 l 163 54 l 163 54 z "},"￭":{"ha":868,"x_min":109,"x_max":760,"o":"m 109 0 l 109 760 l 760 760 l 760 0 l 109 0 l 109 0 m 163 54 l 705 54 l 705 705 l 163 705 l 163 54 l 163 54 z "},"￮":{"ha":868,"x_min":109,"x_max":760,"o":"m 109 0 l 109 760 l 760 760 l 760 0 l 109 0 l 109 0 m 163 54 l 705 54 l 705 705 l 163 705 l 163 54 l 163 54 z "},"￯":{"ha":868,"x_min":109,"x_max":760,"o":"m 109 0 l 109 760 l 760 760 l 760 0 l 109 0 l 109 0 m 163 54 l 705 54 l 705 705 l 163 705 l 163 54 l 163 54 z "},"￰":{"ha":868,"x_min":109,"x_max":760,"o":"m 109 0 l 109 760 l 760 760 l 760 0 l 109 0 l 109 0 m 163 54 l 705 54 l 705 705 l 163 705 l 163 54 l 163 54 z "},"￱":{"ha":868,"x_min":109,"x_max":760,"o":"m 109 0 l 109 760 l 760 760 l 760 0 l 109 0 l 109 0 m 163 54 l 705 54 l 705 705 l 163 705 l 163 54 l 163 54 z "},"￲":{"ha":868,"x_min":109,"x_max":760,"o":"m 109 0 l 109 760 l 760 760 l 760 0 l 109 0 l 109 0 m 163 54 l 705 54 l 705 705 l 163 705 l 163 54 l 163 54 z "}," ":{"ha":336,"x_min":0,"x_max":0,"o":""}}}
